<svg width="656" height="267" viewBox="0 0 656 267" fill="none" xmlns="http://www.w3.org/2000/svg">
<path d="M334.616 108.047H322.213V53.8054C322.213 42.7416 317.293 37.2244 307.452 37.2535C303.229 37.311 299.109 38.5682 295.573 40.8783C291.874 43.078 288.699 46.0589 286.271 49.6128V108.047H273.868V53.8054C273.868 42.7416 268.962 37.2244 259.151 37.2535C254.998 37.3283 250.953 38.5857 247.49 40.8783C243.794 43.0981 240.609 46.0748 238.144 49.6128V108.047H225.698V28.1259H238.144V39.6991C240.887 35.9218 244.438 32.8036 248.538 30.5716C253.181 27.7329 258.513 26.2223 263.954 26.2043C269.023 25.9692 274.027 27.4121 278.192 30.3095C281.748 32.9727 284.303 36.758 285.441 41.053C288.242 36.7182 292.047 33.1228 296.534 30.5716C301.275 27.7018 306.714 26.191 312.256 26.2043C327.133 26.2043 334.587 34.2546 334.616 50.3552V108.047Z" fill="#262624"/>
<path d="M415.628 97.9583C411.889 101.787 407.423 104.829 402.492 106.906C397.561 108.983 392.264 110.052 386.913 110.052C381.563 110.052 376.266 108.983 371.335 106.906C366.403 104.829 361.937 101.787 358.199 97.9583C350.892 89.7236 347.016 79.0027 347.368 67.9989C346.99 57.046 350.836 46.3668 358.112 38.1706C361.865 34.369 366.336 31.3507 371.265 29.2906C376.194 27.2305 381.484 26.1697 386.826 26.1697C392.168 26.1697 397.458 27.2305 402.387 29.2906C407.316 31.3507 411.787 34.369 415.54 38.1706C422.828 46.3651 426.703 57.0377 426.371 67.9989C426.725 78.9874 422.884 89.6989 415.628 97.9583ZM367.588 89.9662C369.979 92.7826 372.953 95.0451 376.305 96.5968C379.657 98.1486 383.307 98.9523 387.001 98.9523C390.695 98.9523 394.344 98.1486 397.696 96.5968C401.048 95.0451 404.023 92.7826 406.413 89.9662C411.207 83.7124 413.719 76.0075 413.532 68.1299C413.751 60.2476 411.235 52.5323 406.413 46.2937C404.019 43.4839 401.043 41.2274 397.691 39.68C394.34 38.1326 390.692 37.3313 387.001 37.3313C383.309 37.3313 379.662 38.1326 376.31 39.68C372.958 41.2274 369.983 43.4839 367.588 46.2937C362.708 52.5067 360.159 60.2327 360.383 68.1299C360.144 76.008 362.644 83.7251 367.457 89.9662H367.588Z" fill="#262624"/>
<path d="M474.105 108.047H460.566L427.288 28.1259H440.696L467.336 93.6347L493.801 28.1259H507.383L474.105 108.047Z" fill="#262624"/>
<path d="M518.956 16.7273C517.884 16.7295 516.822 16.5183 515.832 16.1059C514.842 15.6935 513.945 15.0882 513.191 14.3254C512.388 13.5705 511.752 12.656 511.323 11.6406C510.895 10.6253 510.683 9.53154 510.702 8.42957C510.688 7.32178 510.901 6.22285 511.329 5.20109C511.758 4.17932 512.391 3.25654 513.191 2.4901C513.93 1.7013 514.822 1.07314 515.814 0.644842C516.806 0.21654 517.876 -0.00271433 518.956 0.000766601C520.07 -0.0145026 521.176 0.198474 522.205 0.626585C523.234 1.0547 524.164 1.68888 524.939 2.4901C525.733 3.25871 526.36 4.18288 526.781 5.20484C527.202 6.22681 527.407 7.32459 527.385 8.42957C527.412 9.52868 527.208 10.6213 526.787 11.6369C526.366 12.6524 525.736 13.5683 524.939 14.3254C523.339 15.8832 521.189 16.7465 518.956 16.7273ZM525.245 108.047H512.842V28.1259H525.245V108.047Z" fill="#262624"/>
<path d="M578.699 110.056C573.274 110.241 567.87 109.3 562.827 107.293C557.783 105.287 553.21 102.257 549.395 98.395C545.534 94.3298 542.535 89.5264 540.576 84.2731C538.617 79.0198 537.74 73.4249 537.997 67.8242C537.741 56.8352 541.783 46.1801 549.264 38.1269C552.822 34.2378 557.176 31.1601 562.029 29.1028C566.881 27.0456 572.12 26.057 577.389 26.2043C582.677 25.972 587.948 26.9442 592.805 29.0474C597.663 31.1506 601.978 34.3299 605.427 38.3452C612.478 46.9386 616.158 57.8064 615.777 68.916V72.0604H551.055C551.444 79.477 554.553 86.4897 559.789 91.7567C562.43 94.4039 565.589 96.4764 569.069 97.8442C572.548 99.2121 576.273 99.8456 580.01 99.7051C584.592 99.8358 589.151 99.0056 593.393 97.2682C597.635 95.5307 601.467 92.9243 604.641 89.6168L610.624 97.6962C606.436 101.838 601.441 105.073 595.948 107.199C590.456 109.326 584.584 110.298 578.699 110.056ZM603.505 63.0639C603.444 56.2794 600.984 49.7354 596.561 44.5904C594.184 41.8297 591.201 39.6561 587.845 38.2394C584.489 36.8227 580.851 36.2012 577.215 36.4236C573.677 36.2622 570.149 36.9055 566.896 38.3049C563.644 39.7044 560.751 41.8236 558.436 44.503C553.967 49.6891 551.368 56.2251 551.055 63.0639H603.505Z" fill="#262624"/>
<path d="M262.732 152.418C257.208 152.241 251.708 153.222 246.586 155.298C241.464 157.374 236.833 160.499 232.991 164.471C229.16 168.417 226.155 173.088 224.153 178.21C222.15 183.332 221.191 188.802 221.33 194.3C221.091 199.959 222.044 205.605 224.128 210.872C226.212 216.138 229.381 220.908 233.428 224.871C237.503 228.728 242.304 231.738 247.552 233.725C252.8 235.711 258.39 236.636 263.998 236.444C276.023 237.078 287.83 233.059 296.971 225.22L287.712 211.638C284.905 214.297 281.53 216.283 277.842 217.446C274.161 218.799 270.278 219.523 266.356 219.586C260.588 219.842 254.927 217.96 250.46 214.302C246.532 210.979 243.992 206.304 243.341 201.2H302.779V196.527C303.301 184.872 299.33 173.46 291.686 164.646C288.033 160.633 283.552 157.461 278.553 155.349C273.554 153.238 268.155 152.238 262.732 152.418ZM243.035 186.832C243.649 182.258 245.716 178.001 248.931 174.691C252.811 171.204 257.843 169.276 263.059 169.276C268.275 169.276 273.307 171.204 277.187 174.691C280.305 178.045 282.198 182.354 282.559 186.919L243.035 186.832Z" fill="#262624"/>
<path d="M351.43 152.593C346.128 152.381 340.849 153.394 336.001 155.553C331.154 157.711 326.87 160.957 323.48 165.039V154.602H302.43V234.522H323.48V180.761C325.467 177.785 328.175 175.359 331.351 173.71C334.527 172.06 338.069 171.241 341.647 171.328C351.473 171.328 356.408 176.263 356.408 186.22V234.522H377.415V178.097C377.773 174.599 377.336 171.064 376.135 167.758C374.934 164.452 373.002 161.461 370.481 159.008C367.961 156.554 364.918 154.703 361.581 153.592C358.244 152.481 354.699 152.14 351.211 152.593H351.43Z" fill="#262624"/>
<path d="M437.202 164.865C434.361 161.015 430.646 157.896 426.364 155.762C422.082 153.629 417.355 152.542 412.571 152.593C407.806 152.446 403.067 153.335 398.679 155.197C394.291 157.06 390.359 159.851 387.154 163.38C380.185 171.752 376.671 182.466 377.327 193.339C376.646 204.229 380.163 214.965 387.154 223.342C390.37 226.85 394.307 229.622 398.693 231.469C403.08 233.315 407.814 234.193 412.571 234.042C417.382 234.061 422.127 232.929 426.412 230.741C430.697 228.553 434.396 225.372 437.202 221.464V229.587C437.47 232.5 437.016 235.435 435.881 238.131C434.746 240.827 432.965 243.203 430.695 245.047C426.167 248.243 420.731 249.897 415.191 249.764C410.553 250.024 405.915 249.268 401.6 247.548C397.285 245.828 393.398 243.186 390.211 239.807L380.777 255.048C390.376 263.147 402.639 267.396 415.191 266.971C420.295 267.015 425.385 266.429 430.345 265.224C435.167 264.026 439.777 262.096 444.015 259.503C448.585 256.699 452.23 252.614 454.496 247.755C457.264 241.922 458.611 235.517 458.426 229.063V154.602H437.202V164.865ZM437.202 206.222C435.195 208.997 432.522 211.22 429.428 212.686C426.271 214.386 422.751 215.299 419.165 215.35C416.44 215.459 413.724 214.98 411.2 213.948C408.676 212.916 406.403 211.354 404.535 209.367C400.666 204.953 398.675 199.201 398.989 193.339C398.678 187.464 400.667 181.7 404.535 177.268C406.417 175.277 408.706 173.716 411.245 172.691C413.785 171.666 416.517 171.201 419.253 171.328C422.855 171.336 426.404 172.205 429.603 173.861C432.69 175.341 435.338 177.599 437.289 180.412L437.202 206.222Z" fill="#262624"/>
<path d="M479.258 121.017C477.634 121.009 476.025 121.325 474.525 121.948C473.025 122.57 471.664 123.486 470.524 124.642C469.336 125.763 468.393 127.118 467.754 128.621C467.115 130.124 466.794 131.743 466.811 133.377C466.851 135.854 467.62 138.264 469.02 140.307C470.42 142.351 472.391 143.937 474.686 144.868C476.982 145.8 479.501 146.035 481.929 145.544C484.357 145.054 486.587 143.86 488.342 142.111C490.66 139.795 491.964 136.654 491.967 133.377C491.973 131.731 491.65 130.102 491.018 128.583C490.386 127.064 489.457 125.686 488.285 124.531C487.114 123.376 485.724 122.466 484.196 121.855C482.668 121.244 481.034 120.945 479.389 120.974L479.258 121.017Z" fill="#262624"/>
<path d="M489.827 154.602H468.82V234.522H489.827V154.602Z" fill="#262624"/>
<path d="M549.264 152.593C543.959 152.404 538.681 153.427 533.83 155.584C528.98 157.741 524.685 160.974 521.271 165.039V154.602H500.264V234.522H521.271V180.761C523.271 177.787 525.987 175.364 529.17 173.715C532.352 172.067 535.899 171.246 539.482 171.328C549.308 171.328 554.243 176.263 554.243 186.22V234.522H575.249V178.097C575.608 174.599 575.171 171.064 573.97 167.758C572.769 164.452 570.836 161.461 568.316 159.008C565.796 156.554 562.753 154.703 559.416 153.592C556.079 152.481 552.534 152.14 549.046 152.593H549.264Z" fill="#262624"/>
<path d="M655.955 196.527C656.47 184.886 652.5 173.491 644.863 164.69C641.191 160.674 636.684 157.51 631.66 155.42C626.635 153.33 621.214 152.365 615.777 152.593C610.257 152.422 604.762 153.411 599.647 155.494C594.532 157.578 589.91 160.71 586.08 164.69C582.246 168.627 579.237 173.289 577.227 178.403C575.217 183.517 574.248 188.981 574.376 194.475C574.139 200.133 575.094 205.779 577.178 211.045C579.262 216.311 582.428 221.081 586.473 225.045C590.554 228.895 595.356 231.899 600.602 233.886C605.849 235.872 611.437 236.801 617.044 236.619C629.036 237.277 640.823 233.307 649.972 225.526L640.714 211.944C637.923 214.602 634.562 216.589 630.888 217.752C627.191 219.104 623.294 219.828 619.358 219.892C613.589 220.148 607.929 218.266 603.462 214.608C599.529 211.294 597.001 206.611 596.387 201.506H655.781L655.955 196.527ZM596.212 186.963C596.795 182.359 598.829 178.06 602.02 174.691C603.801 172.871 605.949 171.451 608.321 170.525C610.692 169.599 613.234 169.188 615.777 169.319C618.432 169.109 621.102 169.48 623.598 170.408C626.095 171.336 628.359 172.797 630.233 174.691C633.342 178.068 635.233 182.387 635.604 186.963H596.212Z" fill="#262624"/>
<path d="M77.0377 21.4876C61.8011 21.4876 46.9066 26.0058 34.2379 34.4709C21.5691 42.936 11.695 54.9677 5.86418 69.0447C0.0333796 83.1216 -1.49222 98.6114 1.48029 113.555C4.45281 128.499 11.7899 142.226 22.5638 153C33.3377 163.774 47.0645 171.112 62.0084 174.084C76.9522 177.057 92.4419 175.531 106.519 169.7C120.596 163.869 132.627 153.995 141.092 141.326C149.557 128.657 154.075 113.763 154.075 98.526C154.075 78.0941 145.959 58.4991 131.512 44.0516C117.064 29.6041 97.4693 21.4876 77.0377 21.4876ZM77.0377 34.3273C87.65 34.3273 96.2971 36.511 96.2971 47.1671C96.2971 52.275 94.268 57.1738 90.6561 60.7856C87.0443 64.3975 82.1456 66.4267 77.0377 66.4267C71.9298 66.4267 67.0311 64.3975 63.4192 60.7856C59.8074 57.1738 57.7783 52.275 57.7783 47.1671C57.7783 36.511 66.3817 34.3273 77.0377 34.3273ZM30.5705 63.5879C31.7882 63.7009 32.9894 63.95 34.1516 64.3304C39.0105 65.9114 43.0424 69.3579 45.3602 73.9116C47.678 78.4654 48.0919 83.7534 46.5109 88.6123C44.9298 93.4712 41.4834 97.5031 36.9297 99.8209C32.376 102.139 27.088 102.553 22.2292 100.972C12.1409 97.6962 12.665 88.787 15.984 78.6113C18.8664 69.8768 22.8406 62.9765 30.5705 63.5879ZM123.461 63.5879C131.016 62.9765 135.384 69.8768 138.091 78.6113C141.367 88.6996 141.934 97.6088 131.803 100.884C126.952 102.431 121.686 101.993 117.156 99.6673C112.627 97.3416 109.203 93.3171 107.633 88.4738C106.063 83.6305 106.474 78.3625 108.778 73.8218C111.081 69.2811 115.088 65.8371 119.924 64.243C121.076 63.8968 122.262 63.6771 123.461 63.5879ZM77.0377 85.6862C79.5771 85.6862 82.0595 86.4393 84.171 87.8501C86.2824 89.261 87.9281 91.2663 88.8999 93.6124C89.8717 95.9586 90.126 98.5402 89.6306 101.031C89.1352 103.522 87.9123 105.809 86.1167 107.605C84.321 109.401 82.0332 110.624 79.5426 111.119C77.0519 111.614 74.4703 111.36 72.1242 110.388C69.7781 109.417 67.7728 107.771 66.3619 105.659C64.9511 103.548 64.1981 101.065 64.1981 98.526C64.1981 95.1207 65.5508 91.8548 67.9587 89.4469C70.3666 87.039 73.6324 85.6862 77.0377 85.6862ZM106.56 120.624C109.711 120.522 112.84 121.192 115.672 122.578C118.504 123.964 120.953 126.022 122.806 128.573C129.051 137.307 123.374 144.033 114.77 150.409C106.167 156.785 97.8693 159.93 91.6242 151.326C90.143 149.273 89.0809 146.949 88.4987 144.486C87.9165 142.022 87.8256 139.468 88.2312 136.97C88.6368 134.471 89.5309 132.077 90.8625 129.924C92.1941 127.772 93.9369 125.902 95.9914 124.424C99.0847 122.209 102.759 120.949 106.56 120.799V120.624ZM47.5153 120.624C51.0201 120.719 54.4319 121.773 57.3794 123.672C60.3269 125.571 62.6973 128.241 64.2327 131.393C65.7682 134.545 66.4099 138.058 66.0881 141.549C65.7663 145.041 64.4933 148.377 62.4075 151.195C56.1624 159.93 47.9084 156.523 39.305 150.278C30.7015 144.033 25.0242 137.176 31.2693 128.442C33.1551 125.949 35.6204 123.955 38.4513 122.63C41.2823 121.306 44.3936 120.693 47.5153 120.843V120.624ZM154.075 144.426C150.475 150.625 146.167 156.385 141.236 161.589V162.943C141.236 166.315 141.9 169.654 143.19 172.77C144.481 175.886 146.372 178.717 148.757 181.101C151.142 183.486 153.972 185.377 157.088 186.668C160.203 187.958 163.543 188.622 166.915 188.622C168.618 188.622 170.25 187.946 171.454 186.742C172.658 185.538 173.335 183.905 173.335 182.203C173.335 180.5 172.658 178.867 171.454 177.663C170.25 176.459 168.618 175.783 166.915 175.783C163.51 175.783 160.244 174.43 157.836 172.022C155.428 169.614 154.075 166.348 154.075 162.943V144.426Z" fill="#262624"/>
</svg>
