<svg width="335" height="228" viewBox="0 0 335 228" fill="none" xmlns="http://www.w3.org/2000/svg">
<path d="M68.8209 47.6057C68.7718 52.9034 67.2085 58.076 64.3161 62.5114C61.4238 66.9468 57.3234 70.4592 52.5004 72.6328C42.4325 77.2222 30.3554 74.6906 22.4812 67.1274C14.607 59.5642 12.3457 47.723 16.1747 37.5786C20.0442 27.3619 30.1797 20.6561 40.9234 20.2951C56.1492 19.7852 68.6542 32.5921 68.8209 47.6057C68.8209 47.7852 68.8921 47.9574 69.0188 48.0843C69.1455 48.2113 69.3174 48.2826 69.4966 48.2826C69.6758 48.2826 69.8477 48.2113 69.9744 48.0843C70.1011 47.9574 70.1723 47.7852 70.1723 47.6057C70.1319 42.8744 68.9418 38.2242 66.705 34.057C64.4681 29.8899 61.2517 26.3312 57.334 23.6886C49.2841 18.2058 38.7657 17.6146 29.9275 21.4052C21.0893 25.1959 14.8638 33.6661 13.2962 43.0659C11.7105 52.6192 15.3143 62.3846 22.3821 68.8918C30.6797 76.5363 42.9415 78.2059 53.1806 73.8016C63.5414 69.3566 70.0507 58.7339 70.1723 47.6282C70.1753 47.4487 70.107 47.2753 69.9824 47.1463C69.8578 47.0172 69.6871 46.943 69.5079 46.9401C69.3287 46.9371 69.1556 47.0055 69.0268 47.1303C68.898 47.2552 68.8239 47.4261 68.8209 47.6057Z" fill="white"/>
<path d="M48.1219 47.8719C48.094 49.6799 47.3646 51.4061 46.0882 52.6848C44.8118 53.9635 43.0887 54.6941 41.2838 54.7221C37.4458 54.88 34.5943 51.4865 34.4502 47.8719C34.2925 44.0271 37.68 41.1706 41.2838 41.0262C45.1263 40.8682 47.9777 44.2618 48.1219 47.8719C48.1579 48.7428 49.5093 48.7473 49.4733 47.8719C49.4328 45.7091 48.5569 43.6463 47.0296 42.1172C45.5023 40.5881 43.4427 39.7117 41.2838 39.6724C36.698 39.4829 33.2699 43.5533 33.0988 47.8719C32.9096 52.4657 36.9728 55.8999 41.2838 56.0759C45.8695 56.2609 49.2976 52.195 49.4733 47.8719C49.5093 47.0009 48.1579 47.0054 48.1219 47.8719Z" fill="white"/>
<path d="M38.6801 35.936C37.3287 28.9866 34.8286 22.1815 32.7429 15.4216C32.4951 14.6093 31.2203 14.9703 31.4726 15.7735C33.5763 22.5425 35.3736 29.6093 38.1755 36.1481C38.3062 36.4505 38.7341 36.2249 38.6801 35.936Z" fill="white"/>
<path d="M44.7029 36.1481C47.5048 29.6093 49.3067 22.565 51.4104 15.7735C51.6626 14.9567 50.3878 14.6092 50.1355 15.4215C48.0544 22.1905 45.5678 28.9865 44.2029 35.936C44.1443 36.2248 44.5722 36.4504 44.7029 36.1481Z" fill="white"/>
<path d="M38.6125 36.1165C40.2297 35.5524 42.6938 35.0425 44.2118 36.0714C44.5902 36.3286 44.9506 35.7104 44.5677 35.4622C42.8289 34.3295 40.2117 34.9658 38.5089 35.8638C38.3738 35.936 38.4684 36.1661 38.6125 36.1165Z" fill="white"/>
<path d="M31.86 15.426C34.5898 13.5533 37.9683 13.5533 41.1396 13.7834C43.7028 13.9865 48.0003 13.7834 49.9553 15.6156C50.7121 16.3331 51.8653 15.1643 51.095 14.4739C48.7435 12.3213 44.7254 12.6688 41.7568 12.4251C38.153 12.1183 34.1844 12.2536 31.7068 15.223C31.6212 15.3267 31.7338 15.5118 31.86 15.426Z" fill="white"/>
<path d="M38.3828 36.1707C40.4369 35.8458 42.3559 36.1707 44.3875 36.455C45.2884 36.5723 45.2884 35.1012 44.3875 35.038C42.2118 34.8755 40.1982 34.7176 38.1711 35.6698C37.8647 35.8142 38.099 36.2158 38.3828 36.1707Z" fill="white"/>
<path d="M47.8652 37.5877C51.8068 31.7212 54.8474 25.1373 58.1494 18.8827C58.5458 18.1291 57.4061 17.4613 57.0097 18.2149C53.7032 24.5326 50.0004 30.7645 47.3652 37.3756C47.2435 37.6824 47.703 37.8268 47.8652 37.5877Z" fill="white"/>
<path d="M51.9825 41.983C58.5818 39.3476 64.8298 35.6382 71.1094 32.3259C71.8616 31.9288 71.1949 30.7871 70.4427 31.1842C64.1992 34.5055 57.6584 37.5516 51.7707 41.5001C51.5275 41.6626 51.6761 42.1229 51.9825 42.001V41.983Z" fill="white"/>
<path d="M47.712 37.6509C49.2346 38.3774 51.3878 39.7989 51.6987 41.5904C51.7797 42.0417 52.469 41.8521 52.3834 41.4009C51.9915 39.3837 49.631 37.9532 47.8156 37.3982C47.6715 37.353 47.5679 37.5832 47.712 37.6509Z" fill="white"/>
<path d="M57.5232 18.2509C60.735 18.851 63.1045 21.1796 65.1811 23.5668C66.8884 25.5478 70.1138 28.472 70.2039 31.2022C70.2399 32.2491 71.8751 32.2446 71.821 31.2022C71.6544 27.9847 68.5506 25.3718 66.6001 23.0794C64.2802 20.3312 61.4017 17.6913 57.5907 18.0162C57.4556 18.0162 57.4061 18.2373 57.5547 18.2644L57.5232 18.2509Z" fill="white"/>
<path d="M47.4913 37.5425C49.1355 38.7203 50.1941 40.2501 51.4329 41.8521C51.4855 41.9342 51.5546 42.0044 51.6358 42.0584C51.717 42.1123 51.8085 42.1487 51.9045 42.1653C52.0005 42.1819 52.0989 42.1783 52.1934 42.1548C52.2879 42.1313 52.3766 42.0884 52.4537 42.0287C52.5307 41.9691 52.5946 41.894 52.6412 41.8084C52.6878 41.7227 52.7161 41.6282 52.7243 41.531C52.7325 41.4337 52.7205 41.3359 52.6889 41.2435C52.6574 41.1512 52.607 41.0665 52.541 40.9947C51.1266 39.3521 49.8067 37.7772 47.703 37.0371C47.3877 36.9288 47.2525 37.3711 47.4913 37.5425Z" fill="white"/>
<path d="M53.2032 45.2637C60.1404 43.9099 66.929 41.4053 73.677 39.316C74.4878 39.0678 74.1274 37.7907 73.3301 38.0434C66.5731 40.1508 59.5188 41.9514 52.9915 44.7582C52.6897 44.8891 52.9149 45.3178 53.2032 45.2637Z" fill="white"/>
<path d="M52.9915 51.297C59.5188 54.1084 66.5506 55.909 73.3301 58.0164C74.141 58.2691 74.4878 56.992 73.677 56.7393C66.9199 54.6544 60.1404 52.1635 53.2032 50.7961C52.9149 50.7375 52.6897 51.1662 52.9915 51.297Z" fill="white"/>
<path d="M53.0456 45.196C53.6086 46.8161 54.1177 49.2845 53.0861 50.8052C52.8338 51.1843 53.451 51.5453 53.6987 51.1617C54.8294 49.4199 54.1942 46.798 53.2978 45.0922C53.2257 44.9568 52.996 45.0516 53.0456 45.196Z" fill="white"/>
<path d="M73.677 38.4315C75.5465 41.1661 75.5645 44.5506 75.3122 47.7275C75.114 50.2952 75.3347 54.6003 73.4833 56.5543C72.7671 57.3169 73.9338 58.4721 74.6275 57.7005C76.7762 55.3449 76.4294 51.3196 76.6726 48.3458C76.979 44.7356 76.8438 40.76 73.8752 38.278C73.7716 38.1923 73.5914 38.3051 73.677 38.4315Z" fill="white"/>
<path d="M52.969 44.9658C53.2888 47.0236 52.969 48.946 52.6852 50.9812C52.5681 51.8837 54.0366 51.8837 54.0997 50.9812C54.2573 48.8016 54.4195 46.7844 53.469 44.7537C53.3248 44.4468 52.9239 44.6815 52.969 44.9658Z" fill="white"/>
<path d="M51.55 54.4649C57.4061 58.4135 63.9784 61.4595 70.2219 64.7673C70.9742 65.1644 71.6454 64.0227 70.8886 63.6256C64.6091 60.3133 58.3656 56.5994 51.7617 53.964C51.4599 53.8422 51.3112 54.3025 51.55 54.4649Z" fill="white"/>
<path d="M47.1444 58.5895C49.7796 65.2005 53.4825 71.4596 56.7889 77.7502C57.1853 78.5038 58.325 77.8359 57.9286 77.0823C54.6312 70.8278 51.586 64.2574 47.6489 58.3774C47.4822 58.1337 47.0228 58.2826 47.1444 58.5895Z" fill="white"/>
<path d="M51.4914 54.3116C50.7662 55.8368 49.3472 57.9939 47.5589 58.3053C47.1084 58.3865 47.2976 59.0769 47.7436 58.9912C49.7617 58.5941 51.1896 56.234 51.7437 54.4154C51.7843 54.271 51.559 54.1672 51.4914 54.3116Z" fill="white"/>
<path d="M70.8526 64.14C70.2535 67.3576 67.9336 69.7312 65.5506 71.8116C63.573 73.5219 60.6495 76.7529 57.9241 76.8432C56.8836 76.8793 56.8881 78.5174 57.9241 78.4632C61.1405 78.2963 63.7442 75.187 66.0326 73.2331C68.7804 70.9045 71.4157 68.0254 71.0913 64.2077C71.0913 64.0723 70.8706 64.0227 70.8391 64.1716L70.8526 64.14Z" fill="white"/>
<path d="M51.5995 54.0904C50.4238 55.7375 48.8967 56.798 47.293 58.039C47.2047 58.0889 47.1282 58.1574 47.0688 58.2398C47.0094 58.3221 46.9686 58.4164 46.949 58.5161C46.9294 58.6157 46.9316 58.7185 46.9554 58.8172C46.9792 58.916 47.024 59.0084 47.0868 59.0882C47.1497 59.1679 47.229 59.2331 47.3193 59.2792C47.4097 59.3254 47.509 59.3514 47.6103 59.3554C47.7116 59.3595 47.8126 59.3416 47.9064 59.3028C48.0001 59.2641 48.0844 59.2055 48.1534 59.131C49.7931 57.7141 51.3653 56.3919 52.104 54.2845C52.2122 53.9686 51.7707 53.8332 51.5995 54.0724V54.0904Z" fill="white"/>
<path d="M43.8921 59.8125C45.2435 66.7619 47.7436 73.5625 49.8292 80.3225C50.077 81.1347 51.3518 80.7737 51.0996 79.975C48.9959 73.1834 47.1985 66.1392 44.3921 59.6004C44.2615 59.298 43.8335 59.5236 43.8921 59.8125Z" fill="white"/>
<path d="M37.8693 59.5823C35.0628 66.1211 33.2655 73.1654 31.1618 79.9569C30.9095 80.7692 32.1843 81.1166 32.4366 80.3044C34.5178 73.5354 37.0044 66.7439 38.3693 59.7944C38.4233 59.5056 37.9954 59.28 37.8693 59.5823Z" fill="white"/>
<path d="M43.9551 59.6544C42.3424 60.2185 39.9009 60.7239 38.3603 59.695C37.9819 59.4423 37.6215 60.0605 38.0044 60.3087C39.7387 61.4414 42.3559 60.8051 44.0632 59.9071C44.0902 59.8889 44.1101 59.8619 44.1193 59.8306C44.1285 59.7994 44.1265 59.7658 44.1137 59.7359C44.1009 59.7059 44.078 59.6814 44.0491 59.6665C44.0201 59.6516 43.9869 59.6474 43.9551 59.6544Z" fill="white"/>
<path d="M50.7076 80.3405C48.0048 82.2132 44.6038 82.2313 41.428 81.9786C38.8693 81.78 34.5718 81.9786 32.6168 80.1464C31.86 79.4289 30.7068 80.5977 31.4771 81.2926C33.8286 83.4452 37.8422 83.0977 40.8153 83.3414C44.4191 83.6482 48.3877 83.5129 50.8608 80.539C50.9509 80.4352 50.8337 80.2547 50.7076 80.3405Z" fill="white"/>
<path d="M44.1893 59.5823C42.1352 59.9073 40.2162 59.5823 38.1801 59.3026C37.2792 59.1852 37.2792 60.6564 38.1801 60.7195C40.3604 60.8775 42.374 61.0399 44.4011 60.0878C44.7074 59.9434 44.4731 59.5417 44.1893 59.5823Z" fill="white"/>
<path d="M34.6845 58.1562C30.7474 64.0226 27.7022 70.6066 24.4048 76.8611C24.0084 77.6147 25.148 78.2826 25.5445 77.529C28.8509 71.2384 32.5537 64.9838 35.189 58.3683C35.3106 58.0659 34.8511 57.917 34.6845 58.1562Z" fill="white"/>
<path d="M30.5897 53.7429C23.9903 56.3828 17.7423 60.0922 11.4628 63.4045C10.7105 63.8016 11.3772 64.9433 12.1295 64.5462C18.373 61.2429 24.9318 58.1924 30.8014 54.2483C31.0446 54.0814 30.8915 53.6211 30.5897 53.7429Z" fill="white"/>
<path d="M34.8601 58.0977C33.333 57.3711 31.1843 55.9722 30.8689 54.1672C30.7923 53.7159 30.0986 53.9054 30.1887 54.3522C30.5806 56.3739 32.9411 57.8044 34.7565 58.3594C34.9006 58.4 35.0042 58.1744 34.8601 58.1067V58.0977Z" fill="white"/>
<path d="M25.0444 77.493C21.8371 76.8929 19.4631 74.5688 17.3865 72.1816C15.7062 70.2006 12.4809 67.2538 12.3863 64.5462C12.3502 63.5038 10.7195 63.5083 10.7736 64.5462C10.9403 67.7683 14.044 70.3766 15.99 72.669C18.3144 75.4217 21.1929 78.0616 24.9994 77.7367C25.13 77.7367 25.1841 77.5156 25.0309 77.484L25.0444 77.493Z" fill="white"/>
<path d="M35.0809 58.2285C33.4322 57.0507 32.3781 55.5209 31.1393 53.9144C31.0851 53.8352 31.0154 53.7679 30.9344 53.7167C30.8533 53.6655 30.7627 53.6314 30.668 53.6166C30.5734 53.6018 30.4767 53.6065 30.3839 53.6305C30.2911 53.6545 30.2042 53.6972 30.1285 53.7561C30.0528 53.8149 29.99 53.8887 29.9438 53.9728C29.8976 54.0569 29.8691 54.1496 29.8599 54.2451C29.8508 54.3407 29.8613 54.4371 29.8907 54.5284C29.9202 54.6198 29.968 54.7041 30.0311 54.7763C31.4456 56.4189 32.7655 57.9938 34.8692 58.7294C35.1845 58.8422 35.3196 58.4 35.0809 58.2285Z" fill="white"/>
<path d="M29.3689 50.4848C22.4317 51.8386 15.6386 54.3431 8.89059 56.428C8.07975 56.6807 8.44012 57.9578 9.24196 57.705C16.0215 55.5976 23.0533 53.7971 29.5806 50.9857C29.8824 50.8594 29.6572 50.4307 29.3689 50.4848Z" fill="white"/>
<path d="M29.5806 44.4513C23.0533 41.64 16.0215 39.8394 9.24195 37.732C8.4266 37.4793 8.07974 38.7564 8.89058 39.0091C15.6386 41.0804 22.4317 43.5849 29.3689 44.9523C29.6572 45.0064 29.8824 44.5777 29.5806 44.4513Z" fill="white"/>
<path d="M29.5266 50.557C28.9635 48.9415 28.4544 46.4686 29.4815 44.9523C29.7383 44.5732 29.1211 44.2122 28.8734 44.5958C27.7427 46.3332 28.3779 48.955 29.2743 50.6653C29.2924 50.6924 29.3194 50.7123 29.3507 50.7215C29.3819 50.7308 29.4153 50.7288 29.4452 50.7159C29.4752 50.7031 29.4997 50.6802 29.5145 50.6512C29.5293 50.6222 29.5336 50.5889 29.5266 50.557Z" fill="white"/>
<path d="M8.89514 57.326C7.02119 54.6184 7.00768 51.2113 7.25543 48.0299C7.45814 45.4667 7.25543 41.1617 9.08434 39.2032C9.80058 38.4451 8.63387 37.2898 7.94465 38.0615C5.79591 40.4171 6.14278 44.4379 5.89952 47.4117C5.5932 51.0218 5.72834 55.002 8.69243 57.4794C8.79604 57.5651 8.98073 57.4523 8.89514 57.326Z" fill="white"/>
<path d="M29.6031 50.7827C29.2788 48.7249 29.6031 46.8026 29.8869 44.7628C30.0041 43.8603 28.5355 43.8603 28.4725 44.7628C28.3103 46.947 28.1526 48.9641 29.1031 50.9948C29.2473 51.3017 29.6482 51.067 29.6031 50.7827Z" fill="white"/>
<path d="M31.0176 41.279C25.1615 37.3349 18.5892 34.2843 12.3457 30.9811C11.5934 30.584 10.9267 31.7257 11.6835 32.1228C17.963 35.4351 24.2065 39.1445 30.8059 41.7844C31.1122 41.9062 31.2564 41.4459 31.0176 41.279Z" fill="white"/>
<path d="M35.4232 37.1589C32.7924 30.5434 29.0896 24.2888 25.7832 17.9982C25.3867 17.2446 24.2471 17.9125 24.6435 18.6661C27.9274 24.9206 30.9816 31.491 34.9232 37.371C35.0853 37.6147 35.5448 37.4612 35.4232 37.1589Z" fill="white"/>
<path d="M31.0807 41.4369C31.806 39.9117 33.2249 37.7546 35.0133 37.4387C35.4638 37.362 35.2746 36.6671 34.8241 36.7573C32.8105 37.1499 31.3825 39.5146 30.8284 41.3286C30.7834 41.4776 31.0131 41.5768 31.0807 41.4369Z" fill="white"/>
<path d="M11.7105 31.6039C12.3097 28.3909 14.6341 26.0127 17.0171 23.9324C18.9946 22.2266 21.9137 18.9955 24.639 18.9008C25.6841 18.8647 25.6796 17.2311 24.639 17.2853C21.4272 17.4522 18.8189 20.5614 16.5306 22.5109C13.7872 24.8394 11.152 27.7185 11.4763 31.5362C11.4763 31.6671 11.697 31.7167 11.7241 31.5678L11.7105 31.6039Z" fill="white"/>
<path d="M30.9725 41.658C32.1482 40.0064 33.6753 38.9504 35.2745 37.7095C35.3564 37.6567 35.4266 37.5875 35.4804 37.5061C35.5342 37.4248 35.5705 37.3332 35.5871 37.237C35.6037 37.1408 35.6001 37.0423 35.5767 36.9476C35.5532 36.8529 35.5103 36.7641 35.4508 36.6869C35.3913 36.6096 35.3163 36.5457 35.2308 36.499C35.1453 36.4523 35.051 36.4239 34.9539 36.4157C34.8569 36.4075 34.7592 36.4196 34.667 36.4512C34.5748 36.4828 34.4903 36.5332 34.4186 36.5993C32.7789 38.0163 31.2068 39.3385 30.468 41.4459C30.3599 41.7618 30.8014 41.8972 30.9725 41.658Z" fill="white"/>
<path d="M81.2133 47.8719C81.1008 58.4456 76.8579 68.5545 69.3939 76.0317C61.9299 83.5089 51.8389 87.7593 41.2838 87.872C19.3955 88.039 1.52544 69.5462 1.34976 47.8719C1.19209 25.945 19.6523 8.04328 41.2838 7.87631C63.1721 7.70934 81.0467 26.2022 81.2133 47.8719C81.2133 48.0514 81.2845 48.2236 81.4113 48.3505C81.538 48.4775 81.7098 48.5488 81.889 48.5488C82.0683 48.5488 82.2401 48.4775 82.3668 48.3505C82.4936 48.2236 82.5648 48.0514 82.5648 47.8719C82.4341 27.9034 67.9561 10.6065 48.2931 7.11818C28.7157 3.6254 9.31855 15.3132 2.45791 33.815C-4.50634 52.6598 3.89941 74.14 21.1343 83.9731C38.5765 93.9009 61.1495 89.1085 73.6049 73.594C79.3893 66.2707 82.5453 57.2104 82.5648 47.8719C82.5648 47.6924 82.4936 47.5202 82.3668 47.3933C82.2401 47.2663 82.0683 47.195 81.889 47.195C81.7098 47.195 81.538 47.2663 81.4113 47.3933C81.2845 47.5202 81.2133 47.6924 81.2133 47.8719Z" fill="white"/>
<path d="M131.742 41.3828C131.713 43.1893 130.984 44.9137 129.709 46.1913C128.433 47.4689 126.712 48.1994 124.909 48.2285C121.066 48.3864 118.215 44.9929 118.071 41.3828C117.913 37.5335 121.301 34.677 124.909 34.5326C128.747 34.3747 131.598 37.7682 131.742 41.3828C131.778 42.2492 133.13 42.2537 133.094 41.3828C133.055 39.22 132.18 37.1568 130.653 35.6268C129.127 34.0968 127.068 33.2193 124.909 33.1788C120.319 32.9938 116.89 37.0597 116.719 41.3828C116.535 45.9767 120.593 49.4108 124.909 49.5823C129.495 49.7718 132.923 45.7014 133.094 41.3828C133.13 40.5074 131.778 40.5119 131.742 41.3828Z" fill="white"/>
<path d="M121.801 29.6544C121.927 29.9568 122.355 29.7311 122.301 29.4423C120.949 22.4928 118.449 15.6923 116.363 8.93233C116.116 8.12005 114.841 8.48106 115.093 9.2798" fill="white"/>
<path d="M128.323 29.6544C131.13 23.1155 132.927 16.0713 135.031 9.27975C135.283 8.46747 134.008 8.11999 133.76 8.93227C131.675 15.7012 129.188 22.4928 127.823 29.4423C127.769 29.7311 128.197 29.9567 128.323 29.6544Z" fill="white"/>
<path d="M122.238 29.6003C123.85 29.0362 126.319 28.5262 127.832 29.5596C128.211 29.8123 128.571 29.1941 128.188 28.9459C126.454 27.8132 123.837 28.4495 122.129 29.3475C121.994 29.4197 122.089 29.6544 122.238 29.6003Z" fill="white"/>
<path d="M115.485 8.93233C118.21 7.05958 121.589 7.04153 124.765 7.29423C127.323 7.49279 131.621 7.27167 133.576 9.12637C134.333 9.84388 135.486 8.6751 134.716 7.98016C132.364 5.82762 128.35 6.1751 125.382 5.93141C121.778 5.62455 117.805 5.75993 115.332 8.73377C115.242 8.83756 115.359 9.01807 115.485 8.93233Z" fill="white"/>
<path d="M122.003 29.677C124.057 29.3566 125.976 29.677 128.012 29.9613C128.913 30.0786 128.913 28.6075 128.012 28.5443C125.832 28.3864 123.819 28.2239 121.792 29.1761C121.485 29.3205 121.719 29.7221 122.003 29.677Z" fill="white"/>
<path d="M131.49 31.0984C135.427 25.232 138.472 18.648 141.77 12.3935C142.166 11.6399 141.027 10.972 140.63 11.7256C137.324 18.0162 133.621 24.2708 130.986 30.8863C130.864 31.1887 131.323 31.3376 131.49 31.0984Z" fill="white"/>
<path d="M135.589 35.5118C142.193 32.8719 148.437 29.1625 154.716 25.8502C155.469 25.4531 154.802 24.3114 154.05 24.7085C147.82 27.9937 141.261 31.0623 135.391 35.0064C135.148 35.1733 135.301 35.6336 135.603 35.5118H135.589Z" fill="white"/>
<path d="M131.332 31.1526C132.855 31.8791 135.008 33.3006 135.324 35.0921C135.4 35.5434 136.094 35.3539 136.004 34.9071C135.612 32.8854 133.251 31.4549 131.441 30.8999C131.292 30.8593 131.193 31.0849 131.332 31.1526Z" fill="white"/>
<path d="M141.148 11.7482C144.356 12.3484 146.73 14.6724 148.806 17.0596C150.509 19.0407 153.734 21.9694 153.829 24.6995C153.865 25.742 155.496 25.7375 155.442 24.6995C155.275 21.4775 152.171 18.8692 150.225 16.5768C147.901 13.8241 145.022 11.1616 141.216 11.5091C141.085 11.5091 141.036 11.7302 141.184 11.7618L141.148 11.7482Z" fill="white"/>
<path d="M131.112 31.0488C132.756 32.2266 133.815 33.7564 135.053 35.3629C135.107 35.4421 135.177 35.5093 135.258 35.5605C135.339 35.6117 135.43 35.6458 135.525 35.6606C135.619 35.6755 135.716 35.6707 135.809 35.6467C135.902 35.6228 135.988 35.58 136.064 35.5211C136.14 35.4623 136.203 35.3885 136.249 35.3044C136.295 35.2203 136.324 35.1277 136.333 35.0321C136.342 34.9366 136.331 34.8401 136.302 34.7488C136.272 34.6575 136.225 34.5731 136.161 34.5009C134.747 32.8583 133.427 31.2834 131.323 30.5434C131.008 30.435 130.873 30.8773 131.112 31.0488Z" fill="white"/>
<path d="M136.824 38.7699C143.761 37.4161 150.554 34.9116 157.302 32.8222C158.113 32.574 157.753 31.2969 156.951 31.5496C150.171 33.6571 143.139 35.4576 136.612 38.269C136.31 38.3953 136.54 38.824 136.824 38.7699Z" fill="white"/>
<path d="M136.612 44.8033C143.139 47.6147 150.171 49.4153 156.951 51.5227C157.766 51.7754 158.113 50.4983 157.302 50.2501C150.545 48.1608 143.761 45.6698 136.824 44.3024C136.54 44.2483 136.31 44.677 136.612 44.8033Z" fill="white"/>
<path d="M136.666 38.7067C137.229 40.3222 137.738 42.7952 136.711 44.3114C136.454 44.6905 137.071 45.0515 137.319 44.6679C138.45 42.9306 137.815 40.3087 136.918 38.5984C136.9 38.5713 136.873 38.5515 136.842 38.5422C136.811 38.533 136.777 38.535 136.747 38.5478C136.717 38.5607 136.693 38.5836 136.678 38.6126C136.663 38.6416 136.659 38.6749 136.666 38.7067Z" fill="white"/>
<path d="M157.298 31.9424C159.171 34.65 159.185 38.057 158.937 41.2384C158.734 43.8016 158.96 48.1067 157.108 50.0652C156.392 50.8233 157.559 51.9785 158.248 51.2069C160.397 48.8513 160.05 44.8305 160.293 41.8567C160.599 38.2466 160.469 34.2664 157.5 31.789C157.397 31.6987 157.212 31.816 157.298 31.9424Z" fill="white"/>
<path d="M136.589 38.4721C136.914 40.5299 136.589 42.4523 136.306 44.492C136.189 45.3946 137.657 45.3946 137.72 44.492C137.882 42.3079 138.04 40.2907 137.089 38.2601C136.945 37.9532 136.544 38.1878 136.589 38.4721Z" fill="white"/>
<path d="M135.175 47.9758C141.031 51.9198 147.603 54.9704 153.847 58.2736C154.599 58.6707 155.266 57.529 154.514 57.1319C148.23 53.8196 141.986 50.1102 135.387 47.4703C135.08 47.3485 134.936 47.8088 135.175 47.9758Z" fill="white"/>
<path d="M130.769 52.0959C133.4 58.7114 137.103 64.966 140.409 71.2566C140.806 72.0102 141.946 71.3423 141.549 70.5887C138.252 64.3342 135.211 57.7638 131.269 51.8838C131.107 51.6401 130.648 51.7935 130.769 52.0959Z" fill="white"/>
<path d="M135.112 47.8177C134.387 49.343 132.968 51.5001 131.179 51.8159C130.729 51.8927 130.918 52.5876 131.369 52.4974C133.382 52.1048 134.81 49.7401 135.364 47.9215C135.409 47.7771 135.18 47.6778 135.112 47.8177Z" fill="white"/>
<path d="M154.478 57.6509C153.878 60.8639 151.554 63.242 149.171 65.2998C147.193 67.0056 144.274 70.2366 141.549 70.3314C140.509 70.363 140.509 72.0011 141.549 71.9469C144.761 71.78 147.369 68.6708 149.658 66.7213C152.401 64.3928 155.041 61.5137 154.712 57.696C154.712 57.5651 154.491 57.5155 154.464 57.6644L154.478 57.6509Z" fill="white"/>
<path d="M135.22 47.5967C134.044 49.2483 132.495 50.3043 130.918 51.5452C130.836 51.598 130.766 51.6672 130.712 51.7485C130.658 51.8299 130.622 51.9215 130.605 52.0177C130.589 52.1138 130.592 52.2124 130.616 52.3071C130.639 52.4018 130.682 52.4906 130.742 52.5678C130.801 52.645 130.876 52.709 130.962 52.7557C131.047 52.8024 131.142 52.8307 131.239 52.839C131.336 52.8472 131.433 52.8351 131.526 52.8035C131.618 52.7719 131.702 52.7214 131.774 52.6553C133.414 51.2384 134.986 49.9162 135.725 47.8088C135.833 47.4929 135.391 47.3575 135.22 47.5967Z" fill="white"/>
<path d="M127.513 53.3187C128.864 60.2682 131.364 67.0733 133.45 73.8332C133.697 74.6455 134.972 74.2845 134.72 73.4812C132.616 66.6897 130.819 59.6454 128.017 53.1066C127.886 52.8042 127.458 53.0299 127.513 53.3187Z" fill="white"/>
<path d="M121.49 53.1066C118.688 59.6454 116.886 66.6897 114.782 73.4812C114.53 74.298 115.805 74.6455 116.057 73.8332C118.138 67.0642 120.625 60.2682 121.99 53.3187C122.048 53.0299 121.62 52.8042 121.49 53.1066Z" fill="white"/>
<path d="M127.58 53.1608C125.963 53.7249 123.499 54.2348 121.981 53.206C121.602 52.9487 121.242 53.567 121.625 53.8152C123.364 54.9478 125.981 54.3116 127.684 53.4135C127.819 53.3413 127.724 53.1112 127.58 53.1608Z" fill="white"/>
<path d="M134.333 73.8332C131.603 75.706 128.224 75.7195 125.053 75.4713C122.49 75.2682 118.192 75.4713 116.242 73.6392C115.48 72.9216 114.327 74.0904 115.098 74.7809C117.449 76.9334 121.467 76.5859 124.436 76.8296C128.04 77.1365 132.008 77.0011 134.486 74.0318C134.571 73.928 134.459 73.743 134.333 73.8332Z" fill="white"/>
<path d="M127.81 53.084C125.756 53.409 123.837 53.084 121.805 52.7998C120.904 52.6824 120.904 54.1535 121.805 54.2167C123.981 54.3792 125.994 54.5371 128.022 53.585C128.328 53.4405 128.094 53.0389 127.81 53.084Z" fill="white"/>
<path d="M118.327 51.6671C114.386 57.5336 111.345 64.1176 108.043 70.3721C107.647 71.1257 108.787 71.7936 109.183 71.04C112.489 64.7448 116.192 58.4903 118.827 51.8792C118.949 51.5724 118.49 51.428 118.327 51.6671Z" fill="white"/>
<path d="M114.21 47.2537C107.611 49.8891 101.367 53.5985 95.0833 56.9107C94.331 57.3079 94.9977 58.4496 95.75 58.0524C101.993 54.7492 108.552 51.7031 114.422 47.7546C114.665 47.5921 114.512 47.1318 114.21 47.2537Z" fill="white"/>
<path d="M118.472 51.604C116.949 50.8775 114.796 49.456 114.485 47.6644C114.404 47.2132 113.715 47.4027 113.8 47.854C114.197 49.8711 116.553 51.3016 118.368 51.8567C118.512 51.9018 118.616 51.6717 118.472 51.604Z" fill="white"/>
<path d="M108.669 71.0037C105.458 70.4035 103.088 68.075 101.011 65.6878C99.3042 63.7068 96.0788 60.7826 95.9887 58.0524C95.9527 57.0055 94.3175 57.01 94.3716 58.0524C94.5382 61.2699 97.642 63.8828 99.5925 66.1752C101.917 68.9234 104.791 71.5904 108.602 71.2384C108.737 71.2384 108.787 71.0173 108.638 70.9902L108.669 71.0037Z" fill="white"/>
<path d="M118.701 51.7123C117.057 50.5345 115.999 49.0047 114.76 47.4027C114.707 47.3206 114.638 47.2503 114.557 47.1964C114.476 47.1425 114.384 47.1061 114.288 47.0895C114.192 47.0729 114.094 47.0764 113.999 47.1C113.905 47.1235 113.816 47.1664 113.739 47.2261C113.662 47.2857 113.598 47.3607 113.551 47.4464C113.505 47.5321 113.477 47.6266 113.468 47.7238C113.46 47.821 113.472 47.9189 113.504 48.0112C113.535 48.1036 113.586 48.1883 113.652 48.2601C115.066 49.9027 116.386 51.4776 118.49 52.2177C118.805 52.326 118.94 51.8837 118.701 51.7123Z" fill="white"/>
<path d="M112.989 43.9912C106.052 45.3449 99.2636 47.8495 92.5156 49.9388C91.7047 50.187 92.0651 51.4641 92.8624 51.2114C99.6194 49.104 106.674 47.3034 113.201 44.4966C113.503 44.3657 113.278 43.937 112.989 43.9912Z" fill="white"/>
<path d="M113.201 37.9577C106.674 35.1463 99.642 33.3458 92.8624 31.2384C92.0516 30.9857 91.7047 32.2627 92.5156 32.5154C99.2726 34.6003 106.052 37.0913 112.989 38.4586C113.278 38.5173 113.503 38.0886 113.201 37.9577Z" fill="white"/>
<path d="M113.147 44.0587C112.584 42.4387 112.075 39.9703 113.107 38.4495C113.359 38.0704 112.742 37.7094 112.494 38.093C111.363 39.8349 111.998 42.4567 112.895 44.1625C112.967 44.2979 113.197 44.2031 113.147 44.0587Z" fill="white"/>
<path d="M92.5156 50.8232C90.6461 48.0885 90.6281 44.704 90.8804 41.5271C91.0786 38.9594 90.8578 34.6543 92.7093 32.6959C93.4255 31.9377 92.2588 30.7825 91.5651 31.5542C89.4164 33.9098 89.7632 37.935 89.52 40.9089C89.2136 44.519 89.3488 48.4946 92.3174 50.9766C92.421 51.0623 92.6012 50.9495 92.5156 50.8232Z" fill="white"/>
<path d="M113.224 44.2889C112.904 42.2312 113.224 40.3088 113.507 38.2691C113.625 37.3665 112.156 37.3665 112.093 38.2691C111.935 40.4532 111.773 42.4703 112.724 44.501C112.868 44.8079 113.269 44.5732 113.224 44.2889Z" fill="white"/>
<path d="M114.643 34.7898C108.786 30.8412 102.21 27.7952 95.9706 24.4874C95.2184 24.0903 94.5517 25.232 95.304 25.6291C101.583 28.9414 107.827 32.6553 114.431 35.2907C114.733 35.4125 114.881 34.9523 114.643 34.7898Z" fill="white"/>
<path d="M109.404 11.5044C109.007 10.7508 107.868 11.4187 108.264 12.1723C111.561 18.4268 114.607 24.9972 118.544 30.8772C118.71 31.1209 119.17 30.9675 119.048 30.6651" fill="white"/>
<path d="M114.701 34.9432C115.426 33.4179 116.845 31.2609 118.634 30.9495C119.084 30.8683 118.895 30.1778 118.449 30.2636C116.431 30.6607 115.003 33.0208 114.449 34.8394C114.404 34.9838 114.634 35.0876 114.701 34.9432Z" fill="white"/>
<path d="M95.3401 25.1101C95.9392 21.8971 98.2591 19.5235 100.642 17.4657C102.62 15.7554 105.543 12.5018 108.269 12.4341C109.309 12.398 109.305 10.7599 108.269 10.8141C105.052 10.981 102.448 14.0902 100.16 16.0442C97.4122 18.3682 94.777 21.2518 95.1013 25.0695C95.1013 25.2049 95.322 25.2545 95.3536 25.1011L95.3401 25.1101Z" fill="white"/>
<path d="M114.593 35.1643C115.769 33.5172 117.318 32.4567 118.9 31.2157C118.972 31.158 119.033 31.0864 119.078 31.0051C119.123 30.9238 119.152 30.8344 119.163 30.742C119.173 30.6496 119.166 30.5561 119.14 30.4666C119.115 30.3771 119.072 30.2936 119.014 30.2207C118.957 30.1478 118.885 30.087 118.804 30.0418C118.723 29.9965 118.634 29.9678 118.542 29.9571C118.449 29.9464 118.356 29.954 118.267 29.9795C118.177 30.005 118.094 30.0478 118.021 30.1056C116.381 31.5226 114.809 32.8448 114.071 34.9567C113.962 35.2681 114.404 35.408 114.575 35.1643H114.593Z" fill="white"/>
<path d="M164.834 41.3828C164.721 51.9553 160.479 62.063 153.016 69.5394C145.553 77.0157 135.463 81.2657 124.909 81.3784C103.021 81.5454 85.1459 63.0525 84.9793 41.3828C84.8126 19.4558 103.273 1.54962 124.909 1.36912C146.797 1.20215 164.667 19.695 164.834 41.3692C164.834 41.5488 164.905 41.7209 165.032 41.8479C165.158 41.9748 165.33 42.0461 165.51 42.0461C165.689 42.0461 165.861 41.9748 165.987 41.8479C166.114 41.7209 166.185 41.5488 166.185 41.3692C166.032 21.4008 151.581 4.10378 131.914 0.610993C112.336 -2.86375 92.939 8.80596 86.0784 27.3078C79.0916 46.1526 87.5199 67.6329 104.759 77.4659C122.197 87.4163 144.77 82.6013 157.225 67.0868C163.012 59.7647 166.168 50.7037 166.185 41.3647C166.183 41.1852 166.109 41.014 165.981 40.8887C165.853 40.7635 165.68 40.6945 165.501 40.6969C165.321 40.6992 165.15 40.7729 165.025 40.9015C164.9 41.0301 164.831 41.2033 164.834 41.3828Z" fill="white"/>
<path d="M37.4954 91.965C39.9234 93.8513 42.4235 95.5391 44.6398 97.6916C45.3696 98.4001 46.4957 97.2042 45.7299 96.5995C43.3109 94.6862 40.7027 92.7457 37.8918 91.4506C37.581 91.3107 37.18 91.7214 37.4954 91.965Z" fill="white"/>
<path d="M47.1804 105.909C47.4958 102.773 47.712 99.5147 47.3471 96.3739C47.221 95.2773 45.5452 95.2141 45.5948 96.3739C45.6849 99.5688 45.9326 102.692 45.7659 105.909C45.7164 106.834 47.0903 106.812 47.1804 105.909Z" fill="white"/>
<path d="M39.7883 108.856C38.8873 102.755 38.3963 96.586 37.4413 90.4984C37.3062 89.641 35.8467 89.8396 35.9278 90.706C36.4863 96.8748 37.6305 103.053 38.7387 109.145C38.8648 109.835 39.8739 109.528 39.7748 108.856H39.7883Z" fill="white"/>
<path d="M38.8423 110.891C40.6126 109.199 42.392 107.507 44.4911 106.225C45.2254 105.774 44.5272 104.596 43.82 105.074C41.6937 106.514 39.9189 108.35 38.1531 110.201C38.0617 110.292 38.0103 110.416 38.0103 110.546C38.0103 110.675 38.0617 110.8 38.1531 110.891C38.2445 110.983 38.3684 111.034 38.4977 111.034C38.6269 111.034 38.7509 110.983 38.8423 110.891Z" fill="white"/>
<path d="M47.2435 105.323C49.9058 105.431 52.568 105.499 55.2168 105.81C56.0682 105.914 56.1177 104.515 55.2168 104.456C52.5613 104.306 49.8998 104.299 47.2435 104.434C47.124 104.434 47.0094 104.481 46.925 104.566C46.8405 104.65 46.793 104.765 46.793 104.885C46.793 105.004 46.8405 105.119 46.925 105.204C47.0094 105.289 47.124 105.336 47.2435 105.336V105.323Z" fill="white"/>
<path d="M47.5003 99.3658C51.2707 99.4605 55.0457 99.6275 58.8206 99.6365C58.9809 99.6102 59.1266 99.5277 59.2317 99.4037C59.3369 99.2797 59.3946 99.1223 59.3946 98.9596C59.3946 98.7969 59.3369 98.6395 59.2317 98.5155C59.1266 98.3915 58.9809 98.309 58.8206 98.2827C55.0457 98.2827 51.2707 98.4587 47.5003 98.558C47.3984 98.5687 47.3041 98.6168 47.2355 98.693C47.167 98.7693 47.129 98.8683 47.129 98.9709C47.129 99.0735 47.167 99.1725 47.2355 99.2488C47.3041 99.325 47.3984 99.3731 47.5003 99.3838V99.3658Z" fill="white"/>
<path d="M58.3386 107.195C58.3926 104.276 58.2395 101.356 58.2935 98.4362C58.2935 97.4524 56.7439 97.4524 56.7709 98.4362C56.861 101.36 57.1538 104.271 57.2214 107.195C57.2214 107.341 57.2793 107.481 57.3824 107.585C57.4854 107.688 57.6252 107.746 57.771 107.746C57.9167 107.746 58.0565 107.688 58.1596 107.585C58.2626 107.481 58.3205 107.341 58.3205 107.195H58.3386Z" fill="white"/>
<path d="M57.4827 106.216C59.217 108.265 61.4873 109.754 63.2216 111.803C63.7892 112.475 64.8118 111.478 64.1901 110.832C62.3252 108.892 59.9602 107.543 58.0953 105.602C57.7034 105.192 57.1268 105.792 57.4827 106.216Z" fill="white"/>
<path d="M58.5052 99.3387C58.3295 98.1338 58.8566 96.9109 58.6899 95.6835L58.0457 96.5228C60.0458 96.6672 62.0189 96.8838 64.0009 97.1771C64.1134 97.2036 64.2302 97.2062 64.3438 97.1848C64.4574 97.1633 64.5652 97.1183 64.6604 97.0527C64.7556 96.987 64.836 96.9021 64.8965 96.8035C64.957 96.7048 64.9963 96.5946 65.0117 96.4799C65.0272 96.3651 65.0185 96.2484 64.9863 96.1372C64.9541 96.0261 64.899 95.9228 64.8246 95.8342C64.7502 95.7457 64.6581 95.6736 64.5543 95.6228C64.4504 95.5719 64.3371 95.5434 64.2217 95.539C62.1747 95.2679 60.1102 95.1518 58.0457 95.1916C57.9441 95.1939 57.8443 95.2191 57.7537 95.2654C57.6631 95.3117 57.5842 95.3778 57.5227 95.4589C57.4612 95.5401 57.4188 95.634 57.3986 95.7338C57.3784 95.8337 57.381 95.9368 57.4061 96.0354C57.6673 97.2087 57.2169 98.4362 57.5907 99.5914C57.6371 99.695 57.719 99.7785 57.8217 99.8267C57.9243 99.8748 58.0408 99.8845 58.1499 99.8539C58.259 99.8233 58.3536 99.7544 58.4163 99.6599C58.479 99.5653 58.5058 99.4514 58.4917 99.3387H58.5052Z" fill="white"/>
<path d="M65.8524 121.112C65.992 109.88 66.4335 98.5806 66.0821 87.3531C66.0821 87.1317 65.9943 86.9194 65.838 86.7628C65.6817 86.6063 65.4697 86.5183 65.2487 86.5183C65.0277 86.5183 64.8157 86.6063 64.6594 86.7628C64.5031 86.9194 64.4153 87.1317 64.4153 87.3531C64.064 98.5806 64.5099 109.88 64.6496 121.112C64.6626 121.263 64.7316 121.403 64.843 121.506C64.9543 121.608 65.0999 121.665 65.251 121.665C65.402 121.665 65.5476 121.608 65.659 121.506C65.7703 121.403 65.8393 121.263 65.8524 121.112Z" fill="white"/>
<path d="M65.01 120.751C67.3389 122.493 70.1543 123.517 72.6364 125.029C72.7851 125.1 72.9547 125.112 73.1118 125.063C73.269 125.015 73.4022 124.909 73.4853 124.767C73.5685 124.625 73.5954 124.456 73.5608 124.295C73.5263 124.134 73.4327 123.992 73.2986 123.897C70.7535 122.461 68.0462 121.342 65.4875 119.925C64.9379 119.623 64.5325 120.377 65.01 120.751Z" fill="white"/>
<path d="M73.4788 125.864C80.6232 126.469 87.7541 126.41 94.9166 126.532C102.322 126.658 109.85 126.713 117.057 126.713C117.189 126.722 117.321 126.703 117.446 126.659C117.57 126.615 117.684 126.545 117.781 126.455C117.877 126.365 117.955 126.255 118.007 126.134C118.06 126.012 118.087 125.881 118.087 125.749C118.087 125.617 118.06 125.486 118.007 125.364C117.955 125.243 117.877 125.134 117.781 125.043C117.684 124.953 117.57 124.883 117.446 124.839C117.321 124.795 117.189 124.777 117.057 124.786C110.3 124.786 102.917 124.862 95.813 124.953C88.3578 125.047 80.8755 125.002 73.4428 125.634C73.2941 125.634 73.3301 125.855 73.4788 125.864Z" fill="white"/>
<path d="M125.72 125.954C125.846 125.954 126.274 100.562 126.621 87.8451C126.657 86.6447 124.733 86.6312 124.765 87.8451C125.116 100.562 125.548 113.332 125.666 125.968L125.72 125.954Z" fill="white"/>
<path d="M64.2217 87.7097C84.0648 88.3415 104.043 88.8424 123.9 88.3144C124.209 88.2955 124.499 88.1592 124.712 87.9332C124.924 87.7072 125.042 87.4086 125.042 87.0983C125.042 86.7879 124.924 86.4893 124.712 86.2633C124.499 86.0373 124.209 85.901 123.9 85.8821C104.043 85.3541 84.0648 85.855 64.2217 86.4823C64.0592 86.4823 63.9034 86.5469 63.7885 86.662C63.6736 86.7771 63.6091 86.9332 63.6091 87.096C63.6091 87.2588 63.6736 87.4149 63.7885 87.53C63.9034 87.6451 64.0592 87.7097 64.2217 87.7097Z" fill="white"/>
<path d="M120.972 86.8386C120.972 85.0336 120.982 83.2285 121.003 81.4234C121.003 81.2355 120.929 81.0553 120.796 80.9225C120.663 80.7896 120.484 80.715 120.296 80.715C120.108 80.715 119.929 80.7896 119.796 80.9225C119.663 81.0553 119.589 81.2355 119.589 81.4234C119.589 83.2285 119.599 85.0336 119.62 86.8386C119.62 87.0182 119.691 87.1903 119.818 87.3173C119.945 87.4442 120.117 87.5155 120.296 87.5155C120.475 87.5155 120.647 87.4442 120.774 87.3173C120.901 87.1903 120.972 87.0182 120.972 86.8386Z" fill="white"/>
<path d="M75.2806 125.841C73.9292 125.774 72.5283 125.756 71.1679 125.629C70.348 125.557 70.348 126.983 71.1679 126.902C72.5193 126.776 73.9112 126.758 75.2806 126.69C75.3929 126.69 75.5006 126.645 75.5801 126.566C75.6595 126.486 75.7041 126.378 75.7041 126.266C75.7041 126.153 75.6595 126.045 75.5801 125.966C75.5006 125.886 75.3929 125.841 75.2806 125.841Z" fill="white"/>
<path d="M70.7444 126.78C70.5552 129.267 70.5462 131.744 70.4787 134.253C70.4561 135.156 71.8751 135.156 71.8301 134.253C71.7625 131.762 71.7535 129.267 71.5643 126.78C71.5535 126.676 71.5045 126.579 71.4267 126.509C71.3489 126.439 71.2479 126.4 71.1431 126.4C71.0383 126.4 70.9373 126.439 70.8595 126.509C70.7817 126.579 70.7327 126.676 70.7219 126.78H70.7444Z" fill="white"/>
<path d="M70.1363 134.944C86.7631 135.395 103.403 135.336 120.039 135.395C121.21 135.395 121.21 133.59 120.039 133.59C103.403 133.657 86.7631 133.59 70.1363 134.041C70.0168 134.041 69.9023 134.089 69.8178 134.173C69.7333 134.258 69.6859 134.373 69.6859 134.492C69.6859 134.612 69.7333 134.727 69.8178 134.811C69.9023 134.896 70.0168 134.944 70.1363 134.944Z" fill="white"/>
<path d="M116.697 125.557C119.264 125.81 121.837 125.963 124.413 126.139C125.242 126.194 125.242 124.786 124.413 124.849C121.837 125.02 119.264 125.174 116.697 125.431C116.68 125.431 116.664 125.438 116.652 125.449C116.64 125.461 116.634 125.477 116.634 125.494C116.634 125.511 116.64 125.527 116.652 125.539C116.664 125.551 116.68 125.557 116.697 125.557Z" fill="white"/>
<path d="M124.517 124.461C124.224 128.152 124.184 131.857 123.85 135.544C123.724 136.934 126.13 136.934 126.003 135.544C125.67 131.857 125.63 128.152 125.337 124.461C125.337 124.352 125.294 124.247 125.217 124.17C125.14 124.093 125.036 124.05 124.927 124.05C124.818 124.05 124.714 124.093 124.637 124.17C124.56 124.247 124.517 124.352 124.517 124.461Z" fill="white"/>
<path d="M119.526 135.72C121.445 135.661 123.877 135.941 125.625 135.011C126.49 134.56 125.886 133.039 124.949 133.405C124.138 133.76 123.301 134.051 122.445 134.276C121.436 134.501 120.413 134.623 119.409 134.867C119.322 134.908 119.251 134.975 119.205 135.06C119.159 135.144 119.142 135.241 119.155 135.336C119.168 135.431 119.211 135.52 119.278 135.589C119.344 135.658 119.431 135.704 119.526 135.72Z" fill="white"/>
<path d="M125.954 124.059C129.13 124.154 132.301 124.262 135.472 124.429C136.427 124.479 136.427 122.899 135.472 122.949C132.319 123.116 129.13 123.224 125.954 123.319C125.856 123.319 125.762 123.358 125.693 123.427C125.623 123.497 125.584 123.591 125.584 123.689C125.584 123.787 125.623 123.881 125.693 123.951C125.762 124.02 125.856 124.059 125.954 124.059Z" fill="white"/>
<path d="M136.076 124.718C136.121 120.383 136.168 116.046 136.216 111.708C136.265 107.416 136.625 102.967 136.216 98.6934C136.216 98.4912 136.135 98.2972 135.993 98.1542C135.85 98.0111 135.656 97.9308 135.454 97.9308C135.252 97.9308 135.059 98.0111 134.916 98.1542C134.773 98.2972 134.693 98.4912 134.693 98.6934C134.301 102.967 134.666 107.416 134.693 111.708C134.72 115.999 134.788 120.381 134.837 124.718C134.85 124.869 134.919 125.009 135.03 125.111C135.142 125.214 135.287 125.27 135.439 125.27C135.59 125.27 135.735 125.214 135.846 125.111C135.958 125.009 136.027 124.869 136.04 124.718H136.076Z" fill="white"/>
<path d="M125.184 99.7855C129.197 100.101 133.247 100.119 137.274 100.237C138.297 100.273 138.297 98.6167 137.274 98.6483C133.247 98.7882 129.197 98.8062 125.184 99.1266C125.106 99.1359 125.034 99.1734 124.982 99.232C124.93 99.2907 124.902 99.3664 124.902 99.4448C124.902 99.5232 124.93 99.5988 124.982 99.6575C125.034 99.7161 125.106 99.7536 125.184 99.7629V99.7855Z" fill="white"/>
<path d="M136.54 98.9867C141.018 94.9253 145.716 90.9767 149.847 86.5498C149.975 86.4212 150.047 86.2467 150.047 86.0647C150.047 85.8828 149.975 85.7083 149.847 85.5796C149.718 85.4509 149.544 85.3787 149.363 85.3787C149.181 85.3787 149.007 85.4509 148.878 85.5796C144.464 89.7222 140.527 94.4289 136.463 98.9145C136.457 98.925 136.455 98.9373 136.457 98.9494C136.459 98.9614 136.464 98.9725 136.473 98.9809C136.482 98.9892 136.493 98.9943 136.506 98.9954C136.518 98.9964 136.53 98.9934 136.54 98.9867Z" fill="white"/>
<path d="M147.703 87.8721C147.464 94.9524 147.284 102.042 147.252 109.131C147.221 116.221 146.923 123.319 147.175 130.39C147.175 130.701 147.299 131 147.519 131.22C147.738 131.44 148.036 131.564 148.347 131.564C148.657 131.564 148.955 131.44 149.175 131.22C149.395 131 149.518 130.701 149.518 130.39C149.775 123.319 149.491 116.202 149.446 109.131C149.401 102.06 149.221 94.9524 148.995 87.8721C148.982 87.7131 148.909 87.5651 148.792 87.4571C148.675 87.3492 148.522 87.2893 148.362 87.2893C148.203 87.2893 148.05 87.3492 147.933 87.4571C147.815 87.5651 147.743 87.7131 147.73 87.8721H147.703Z" fill="white"/>
<path d="M135.351 124.898C139.355 126.103 142.873 128.355 146.383 130.575C147.284 131.139 148.13 129.673 147.202 129.167C143.419 127.195 139.779 125.038 135.594 124.023C135.536 124.007 135.477 124.002 135.417 124.01C135.358 124.017 135.301 124.036 135.249 124.065C135.197 124.094 135.152 124.134 135.115 124.181C135.078 124.228 135.051 124.281 135.035 124.339C135.019 124.396 135.015 124.456 135.022 124.516C135.029 124.575 135.048 124.632 135.077 124.684C135.107 124.736 135.146 124.782 135.193 124.818C135.24 124.855 135.293 124.882 135.351 124.898Z" fill="white"/>
<path d="M148.333 87.3711C154.415 83.8332 160.496 80.3314 166.478 76.5949C167.343 76.0579 166.559 74.6996 165.681 75.2411C159.644 78.8513 153.752 82.7186 147.842 86.5228C147.787 86.5551 147.738 86.598 147.7 86.649C147.661 86.7 147.633 86.7582 147.616 86.8203C147.6 86.8823 147.596 86.9469 147.605 87.0105C147.613 87.074 147.634 87.1352 147.666 87.1906C147.699 87.246 147.742 87.2946 147.792 87.3334C147.843 87.3722 147.902 87.4006 147.963 87.417C148.025 87.4333 148.09 87.4373 148.153 87.4286C148.217 87.42 148.278 87.3989 148.333 87.3666V87.3711Z" fill="white"/>
<path d="M147.067 130.512C153.568 133.341 160.054 136.207 166.645 138.82C167.604 139.199 167.996 137.678 167.068 137.29C160.586 134.582 154.005 132.119 147.441 129.619C146.928 129.425 146.563 130.291 147.067 130.521V130.512Z" fill="white"/>
<path d="M167.064 138.36C161.491 129.37 159.91 118.215 160.05 107.809C160.19 97.4027 162.199 86.3016 167.667 77.2628C168.298 76.2249 166.667 75.2727 166.046 76.3151C160.451 85.6653 158.451 97.0327 158.352 107.809C158.262 118.454 160.153 129.921 166.131 138.906C166.514 139.479 167.433 138.955 167.064 138.36Z" fill="white"/>
<path d="M167.275 139.393C172.983 129.844 175.582 118.499 175.996 107.452C176.415 96.3152 174.334 84.307 167.6 75.1734C166.699 73.9731 164.69 75.1734 165.595 76.3467C172.325 85.1644 174.37 96.5814 174.24 107.452C174.113 118.215 171.807 129.501 166.438 138.906C166.387 139.016 166.379 139.141 166.415 139.257C166.451 139.373 166.53 139.471 166.635 139.532C166.74 139.593 166.863 139.612 166.982 139.587C167.1 139.561 167.205 139.492 167.275 139.393Z" fill="white"/>
<path d="M164.298 82.7547C168.775 91.0535 170.938 99.8396 170.384 109.285C169.96 116.505 168.816 125.467 163.014 130.404C162.063 131.212 163.28 132.66 164.307 132.082C170.983 128.351 171.803 117.525 172.339 110.796C173.163 100.516 170.537 90.9722 165.298 82.1635C165.216 82.0376 165.089 81.9481 164.943 81.9137C164.798 81.8793 164.644 81.9027 164.515 81.979C164.386 82.0553 164.291 82.1786 164.251 82.3231C164.21 82.4677 164.227 82.6223 164.298 82.7547Z" fill="white"/>
<path d="M165.32 116.73C165.622 111.315 165.613 105.932 164.694 100.571C164.541 99.6681 163.181 100.056 163.343 100.941C164.338 106.171 164.442 111.428 164.244 116.735C164.217 117.421 165.262 117.412 165.298 116.735L165.32 116.73Z" fill="white"/>
<path d="M84.0963 135.539C83.9927 141.785 83.5062 148.116 83.7405 154.352C83.7405 154.565 83.8249 154.77 83.9753 154.92C84.1257 155.071 84.3296 155.156 84.5423 155.156C84.755 155.156 84.9589 155.071 85.1093 154.92C85.2597 154.77 85.3441 154.565 85.3441 154.352C85.5784 148.116 85.0874 141.785 84.9838 135.539C84.9838 135.419 84.9363 135.305 84.8518 135.22C84.7673 135.135 84.6528 135.088 84.5333 135.088C84.4138 135.088 84.2992 135.135 84.2148 135.22C84.1303 135.305 84.0828 135.419 84.0828 135.539H84.0963Z" fill="white"/>
<path d="M84.8937 155.029C88.6461 158.951 92.2048 163.229 96.2185 166.879C96.3977 167.059 96.6407 167.16 96.8942 167.16C97.1476 167.16 97.3907 167.059 97.5699 166.879C97.7491 166.7 97.8497 166.456 97.8497 166.203C97.8497 165.949 97.7491 165.705 97.5699 165.526C93.9256 161.509 89.6596 157.94 85.7406 154.185C85.6267 154.089 85.4809 154.039 85.3321 154.046C85.1833 154.052 85.0422 154.114 84.9369 154.22C84.8316 154.325 84.7696 154.466 84.7633 154.615C84.757 154.765 84.8067 154.911 84.9027 155.025L84.8937 155.029Z" fill="white"/>
<path d="M97.1464 166.658C99.2096 166.776 101.259 167.078 103.318 167.168C104.557 167.223 104.557 165.192 103.318 165.241C101.259 165.332 99.2096 165.639 97.1464 165.751C97.0269 165.751 96.9123 165.799 96.8279 165.884C96.7434 165.968 96.6959 166.083 96.6959 166.203C96.6959 166.322 96.7434 166.437 96.8279 166.522C96.9123 166.606 97.0269 166.654 97.1464 166.654V166.658Z" fill="white"/>
<path d="M104.426 167.317C108.666 163.316 112.898 159.309 117.12 155.296C118.021 154.429 116.611 153.012 115.746 153.942C111.728 158.154 107.729 162.392 103.75 166.658C103.671 166.75 103.63 166.867 103.634 166.988C103.638 167.109 103.687 167.223 103.772 167.309C103.857 167.395 103.971 167.445 104.092 167.45C104.212 167.455 104.33 167.414 104.421 167.335L104.426 167.317Z" fill="white"/>
<path d="M116.791 154.348C116.872 147.818 117.183 141.288 117.192 134.763C117.192 133.454 115.165 133.454 115.165 134.763C115.165 141.288 115.489 147.818 115.571 154.348C115.584 154.501 115.654 154.644 115.767 154.747C115.88 154.851 116.028 154.909 116.181 154.909C116.334 154.909 116.482 154.851 116.595 154.747C116.708 154.644 116.778 154.501 116.791 154.348Z" fill="white"/>
<path d="M108.863 163.432C125.229 207.548 141.486 251.726 158.153 295.734C158.433 296.465 159.608 296.153 159.334 295.409C143.117 251.23 126.449 207.209 109.922 163.139C109.674 162.48 108.615 162.764 108.863 163.432Z" fill="white"/>
<path d="M114.012 158.269C131.089 204.244 148.022 250.278 165.365 296.144C165.645 296.875 166.82 296.564 166.546 295.819C149.622 249.79 132.269 203.906 115.057 157.976C114.809 157.322 113.746 157.601 113.994 158.269H114.012Z" fill="white"/>
<path d="M93.1192 163.139C76.6005 207.209 59.9377 251.23 43.6938 295.409C43.419 296.153 44.5947 296.465 44.874 295.734C61.5413 251.726 77.7582 207.548 94.1643 163.432C94.412 162.764 93.3534 162.48 93.1057 163.139H93.1192Z" fill="white"/>
<path d="M87.9659 157.958C70.7535 203.906 53.4015 249.781 36.4864 295.819C36.2161 296.564 37.3873 296.875 37.6711 296.144C55.0321 250.278 71.9653 204.244 89.0245 158.269C89.2723 157.601 88.2137 157.322 87.9659 157.976V157.958Z" fill="white"/>
<path d="M103.462 166.04C103.264 203.489 103.169 240.97 103.178 278.482C103.178 278.933 104.485 278.933 104.485 278.482C104.485 241.027 104.39 203.561 104.201 166.085C104.201 165.612 103.462 165.562 103.462 166.04Z" fill="white"/>
<path d="M96.25 166.04C96.0488 203.492 95.9482 240.973 95.9482 278.482C95.9482 278.933 97.259 278.933 97.259 278.482C97.259 241.027 97.1644 203.561 96.9753 166.085C96.9753 165.611 96.2365 165.562 96.2365 166.04H96.25Z" fill="white"/>
<path d="M59.9467 96.1843C60.1044 92.8675 60.2846 89.5282 60.3071 86.2069C60.2949 86.0747 60.2339 85.9518 60.136 85.8624C60.038 85.7729 59.9103 85.7233 59.7778 85.7233C59.6453 85.7233 59.5175 85.7729 59.4196 85.8624C59.3217 85.9518 59.2607 86.0747 59.2485 86.2069C59.2305 88.4602 59.214 90.7165 59.1989 92.9758C59.2117 93.1208 59.2782 93.2557 59.3854 93.354C59.4925 93.4523 59.6325 93.5068 59.7778 93.5068C59.9231 93.5068 60.0631 93.4523 60.1702 93.354C60.2773 93.2557 60.3439 93.1208 60.3566 92.9758C60.3566 90.4307 60.3566 87.8856 60.3566 85.3449C60.3437 85.1953 60.2752 85.056 60.1647 84.9545C60.0542 84.8531 59.9097 84.7968 59.7598 84.7968C59.6099 84.7968 59.4654 84.8531 59.3549 84.9545C59.2444 85.056 59.1759 85.1953 59.1629 85.3449V95.6157C59.176 95.7688 59.246 95.9114 59.3591 96.0153C59.4721 96.1192 59.6199 96.1769 59.7733 96.1769C59.9267 96.1769 60.0745 96.1192 60.1875 96.0153C60.3005 95.9114 60.3705 95.7688 60.3837 95.6157C60.3837 92.484 60.3837 89.3537 60.3837 86.2249C60.3706 86.073 60.3011 85.9315 60.1889 85.8284C60.0767 85.7253 59.93 85.6681 59.7778 85.6681C59.6256 85.6681 59.4789 85.7253 59.3667 85.8284C59.2545 85.9315 59.185 86.073 59.1719 86.2249C59.1719 89.3567 59.1719 92.487 59.1719 95.6157C59.1851 95.7688 59.2551 95.9114 59.3681 96.0153C59.4811 96.1192 59.6289 96.1769 59.7823 96.1769C59.9357 96.1769 60.0835 96.1192 60.1965 96.0153C60.3095 95.9114 60.3795 95.7688 60.3927 95.6157V85.3449C60.3797 85.1953 60.3112 85.056 60.2007 84.9545C60.0902 84.8531 59.9457 84.7968 59.7958 84.7968C59.6459 84.7968 59.5014 84.8531 59.3909 84.9545C59.2804 85.056 59.2119 85.1953 59.1989 85.3449C59.1989 87.8856 59.1989 90.4307 59.1989 92.9758C59.2117 93.1208 59.2782 93.2557 59.3854 93.354C59.4925 93.4523 59.6325 93.5068 59.7778 93.5068C59.9231 93.5068 60.0631 93.4523 60.1702 93.354C60.2773 93.2557 60.3439 93.1208 60.3566 92.9758C60.3386 90.7225 60.3221 88.4662 60.3071 86.2069C60.2949 86.0747 60.2339 85.9518 60.136 85.8624C60.038 85.7729 59.9103 85.7233 59.7778 85.7233C59.6453 85.7233 59.5175 85.7729 59.4196 85.8624C59.3217 85.9518 59.2607 86.0747 59.2485 86.2069C59.271 89.5282 59.4512 92.8675 59.6089 96.1843C59.6154 96.2245 59.636 96.261 59.667 96.2873C59.6979 96.3136 59.7372 96.3281 59.7778 96.3281C59.8184 96.3281 59.8577 96.3136 59.8886 96.2873C59.9196 96.261 59.9402 96.2245 59.9467 96.1843Z" fill="white"/>
<path d="M78.2313 63.8468C82.335 64.1085 86.4253 64.2078 90.5335 64.271C90.698 64.2573 90.8513 64.1822 90.9631 64.0606C91.0748 63.939 91.1368 63.7797 91.1368 63.6144C91.1368 63.4491 91.0748 63.2898 90.9631 63.1682C90.8513 63.0466 90.698 62.9715 90.5335 62.9578C86.5289 62.9082 82.5287 62.8946 78.5241 62.8766C78.3293 62.8766 78.1426 62.9541 78.0049 63.092C77.8672 63.23 77.7898 63.4171 77.7898 63.6121C77.7898 63.8072 77.8672 63.9943 78.0049 64.1323C78.1426 64.2702 78.3293 64.3477 78.5241 64.3477C82.5287 64.3477 86.5289 64.3206 90.5335 64.271C90.698 64.2573 90.8513 64.1822 90.9631 64.0606C91.0748 63.939 91.1368 63.7797 91.1368 63.6144C91.1368 63.4491 91.0748 63.2898 90.9631 63.1682C90.8513 63.0466 90.698 62.9715 90.5335 62.9578C86.4253 63.0165 82.335 63.1203 78.2313 63.382C78.1823 63.396 78.1392 63.4256 78.1086 63.4663C78.0779 63.507 78.0614 63.5566 78.0614 63.6076C78.0614 63.6586 78.0779 63.7082 78.1086 63.7489C78.1392 63.7897 78.1823 63.8193 78.2313 63.8333V63.8468Z" fill="white"/>
<path d="M75.0104 95.3269C86.8217 95.5797 98.6345 95.7075 110.449 95.7105C110.625 95.6964 110.789 95.6163 110.909 95.4863C111.029 95.3562 111.095 95.1858 111.095 95.0088C111.095 94.8319 111.029 94.6614 110.909 94.5314C110.789 94.4013 110.625 94.3212 110.449 94.3071C99.124 94.289 87.7992 94.274 76.4744 94.262C76.2761 94.262 76.0859 94.3409 75.9457 94.4814C75.8054 94.6219 75.7266 94.8124 75.7266 95.0111C75.7266 95.2097 75.8054 95.4003 75.9457 95.5407C76.0859 95.6812 76.2761 95.7602 76.4744 95.7602C89.2632 95.7602 102.057 95.8053 114.845 95.7917C115.85 95.7917 115.85 94.2123 114.845 94.2304L112.796 94.2575C112.607 94.2721 112.43 94.3577 112.302 94.4969C112.173 94.6362 112.102 94.819 112.102 95.0088C112.102 95.1986 112.173 95.3814 112.302 95.5207C112.43 95.66 112.607 95.7455 112.796 95.7602L114.845 95.7917C115.85 95.7917 115.85 94.2304 114.845 94.2304C102.057 94.2304 89.2632 94.2304 76.4744 94.262C76.2761 94.262 76.0859 94.3409 75.9457 94.4814C75.8054 94.6219 75.7266 94.8124 75.7266 95.0111C75.7266 95.2097 75.8054 95.4003 75.9457 95.5407C76.0859 95.6812 76.2761 95.7602 76.4744 95.7602C87.7992 95.7602 99.124 95.7436 110.449 95.7105C110.625 95.6964 110.789 95.6163 110.909 95.4863C111.029 95.3562 111.095 95.1858 111.095 95.0088C111.095 94.8319 111.029 94.6614 110.909 94.5314C110.789 94.4013 110.625 94.3212 110.449 94.3071C98.6375 94.3312 86.8247 94.459 75.0104 94.6907C74.9327 94.7 74.8611 94.7375 74.8091 94.7961C74.7572 94.8547 74.7285 94.9304 74.7285 95.0088C74.7285 95.0872 74.7572 95.1629 74.8091 95.2215C74.8611 95.2801 74.9327 95.3177 75.0104 95.3269Z" fill="white"/>
<path d="M75.0104 100.954C86.8217 101.207 98.6345 101.335 110.449 101.338C110.625 101.324 110.789 101.244 110.909 101.113C111.029 100.983 111.095 100.813 111.095 100.636C111.095 100.459 111.029 100.289 110.909 100.159C110.789 100.029 110.625 99.9484 110.449 99.9343C99.124 99.9162 87.7992 99.8997 76.4744 99.8847C76.2855 99.8993 76.1091 99.9848 75.9805 100.124C75.8518 100.263 75.7803 100.446 75.7803 100.636C75.7803 100.826 75.8518 101.009 75.9805 101.148C76.1091 101.287 76.2855 101.373 76.4744 101.387C89.2632 101.387 102.057 101.432 114.845 101.414C115.85 101.414 115.85 99.8395 114.845 99.8576L112.796 99.8847C112.607 99.8993 112.43 99.9848 112.302 100.124C112.173 100.263 112.102 100.446 112.102 100.636C112.102 100.826 112.173 101.009 112.302 101.148C112.43 101.287 112.607 101.373 112.796 101.387L114.845 101.414C115.85 101.414 115.85 99.8576 114.845 99.8576C102.057 99.8576 89.2632 99.8576 76.4744 99.8847C76.2855 99.8993 76.1091 99.9848 75.9805 100.124C75.8518 100.263 75.7803 100.446 75.7803 100.636C75.7803 100.826 75.8518 101.009 75.9805 101.148C76.1091 101.287 76.2855 101.373 76.4744 101.387C87.7992 101.387 99.124 101.371 110.449 101.338C110.625 101.324 110.789 101.244 110.909 101.113C111.029 100.983 111.095 100.813 111.095 100.636C111.095 100.459 111.029 100.289 110.909 100.159C110.789 100.029 110.625 99.9484 110.449 99.9343C98.6375 99.9584 86.8247 100.086 75.0104 100.318C74.9327 100.327 74.8611 100.365 74.8091 100.423C74.7572 100.482 74.7285 100.558 74.7285 100.636C74.7285 100.714 74.7572 100.79 74.8091 100.849C74.8611 100.907 74.9327 100.945 75.0104 100.954Z" fill="white"/>
<path d="M75.0104 106.581C86.8217 106.834 98.6345 106.962 110.449 106.965C110.625 106.951 110.789 106.871 110.909 106.741C111.029 106.611 111.095 106.44 111.095 106.263C111.095 106.086 111.029 105.916 110.909 105.786C110.789 105.656 110.625 105.576 110.449 105.562C99.124 105.544 87.7992 105.527 76.4744 105.512C76.2855 105.527 76.1091 105.612 75.9805 105.751C75.8518 105.891 75.7803 106.074 75.7803 106.263C75.7803 106.453 75.8518 106.636 75.9805 106.775C76.1091 106.914 76.2855 107 76.4744 107.015C89.2632 107.015 102.057 107.06 114.845 107.042C115.85 107.042 115.85 105.467 114.845 105.485L112.796 105.512C112.607 105.527 112.43 105.612 112.302 105.751C112.173 105.891 112.102 106.074 112.102 106.263C112.102 106.453 112.173 106.636 112.302 106.775C112.43 106.914 112.607 107 112.796 107.015L114.845 107.042C115.85 107.042 115.85 105.485 114.845 105.485C102.057 105.485 89.2632 105.485 76.4744 105.512C76.2855 105.527 76.1091 105.612 75.9805 105.751C75.8518 105.891 75.7803 106.074 75.7803 106.263C75.7803 106.453 75.8518 106.636 75.9805 106.775C76.1091 106.914 76.2855 107 76.4744 107.015C87.7992 107.015 99.124 106.998 110.449 106.965C110.625 106.951 110.789 106.871 110.909 106.741C111.029 106.611 111.095 106.44 111.095 106.263C111.095 106.086 111.029 105.916 110.909 105.786C110.789 105.656 110.625 105.576 110.449 105.562C98.6375 105.586 86.8247 105.714 75.0104 105.945C74.9327 105.954 74.8611 105.992 74.8091 106.051C74.7572 106.109 74.7285 106.185 74.7285 106.263C74.7285 106.342 74.7572 106.417 74.8091 106.476C74.8611 106.535 74.9327 106.572 75.0104 106.581Z" fill="white"/>
<path d="M75.0104 112.209C86.8217 112.456 98.6345 112.583 110.449 112.592C110.625 112.578 110.789 112.498 110.909 112.368C111.029 112.238 111.095 112.068 111.095 111.891C111.095 111.714 111.029 111.543 110.909 111.413C110.789 111.283 110.625 111.203 110.449 111.189C99.124 111.165 87.7992 111.148 76.4744 111.139C76.2761 111.139 76.0859 111.218 75.9457 111.359C75.8054 111.499 75.7266 111.69 75.7266 111.888C75.7266 112.087 75.8054 112.278 75.9457 112.418C76.0859 112.559 76.2761 112.638 76.4744 112.638C89.2632 112.638 102.057 112.687 114.845 112.669C115.85 112.669 115.85 111.094 114.845 111.108L112.796 111.139C112.607 111.154 112.43 111.24 112.302 111.379C112.173 111.518 112.102 111.701 112.102 111.891C112.102 112.08 112.173 112.263 112.302 112.403C112.43 112.542 112.607 112.627 112.796 112.642L114.845 112.669C115.85 112.669 115.85 111.112 114.845 111.108C102.057 111.108 89.2632 111.108 76.4744 111.139C76.2761 111.139 76.0859 111.218 75.9457 111.359C75.8054 111.499 75.7266 111.69 75.7266 111.888C75.7266 112.087 75.8054 112.278 75.9457 112.418C76.0859 112.559 76.2761 112.638 76.4744 112.638C87.7992 112.638 99.124 112.622 110.449 112.592C110.625 112.578 110.789 112.498 110.909 112.368C111.029 112.238 111.095 112.068 111.095 111.891C111.095 111.714 111.029 111.543 110.909 111.413C110.789 111.283 110.625 111.203 110.449 111.189C98.6375 111.21 86.8247 111.338 75.0104 111.573C74.9327 111.582 74.8611 111.619 74.8091 111.678C74.7572 111.737 74.7285 111.812 74.7285 111.891C74.7285 111.969 74.7572 112.045 74.8091 112.103C74.8611 112.162 74.9327 112.2 75.0104 112.209Z" fill="white"/>
<path d="M75.0104 117.836C86.8217 118.083 98.6345 118.209 110.449 118.215C110.634 118.215 110.812 118.141 110.942 118.01C111.073 117.879 111.147 117.701 111.147 117.516C111.147 117.33 111.073 117.152 110.942 117.021C110.812 116.89 110.634 116.816 110.449 116.816C99.124 116.795 87.7992 116.779 76.4744 116.767C76.2761 116.767 76.0859 116.845 75.9457 116.986C75.8054 117.126 75.7266 117.317 75.7266 117.516C75.7266 117.714 75.8054 117.905 75.9457 118.045C76.0859 118.186 76.2761 118.265 76.4744 118.265C89.2632 118.265 102.057 118.314 114.845 118.296C115.85 118.296 115.85 116.721 114.845 116.735L112.796 116.767C112.607 116.781 112.43 116.867 112.302 117.006C112.173 117.145 112.102 117.328 112.102 117.518C112.102 117.708 112.173 117.89 112.302 118.03C112.43 118.169 112.607 118.255 112.796 118.269L114.845 118.296C115.85 118.296 115.85 116.739 114.845 116.735C102.057 116.735 89.2632 116.758 76.4744 116.767C76.2761 116.767 76.0859 116.845 75.9457 116.986C75.8054 117.126 75.7266 117.317 75.7266 117.516C75.7266 117.714 75.8054 117.905 75.9457 118.045C76.0859 118.186 76.2761 118.265 76.4744 118.265C87.7992 118.265 99.124 118.248 110.449 118.215C110.634 118.215 110.812 118.141 110.942 118.01C111.073 117.879 111.147 117.701 111.147 117.516C111.147 117.33 111.073 117.152 110.942 117.021C110.812 116.89 110.634 116.816 110.449 116.816C98.6375 116.837 86.8247 116.965 75.0104 117.2C74.9327 117.209 74.8611 117.247 74.8091 117.305C74.7572 117.364 74.7285 117.44 74.7285 117.518C74.7285 117.596 74.7572 117.672 74.8091 117.731C74.8611 117.789 74.9327 117.827 75.0104 117.836Z" fill="white"/>
<path d="M88.065 135.232L87.8983 139.745C87.8983 139.857 87.9429 139.965 88.0223 140.045C88.1017 140.124 88.2095 140.169 88.3218 140.169C88.4341 140.169 88.5418 140.124 88.6212 140.045C88.7006 139.965 88.7452 139.857 88.7452 139.745L88.583 135.232C88.5747 135.169 88.5439 135.112 88.4962 135.07C88.4486 135.028 88.3874 135.005 88.324 135.005C88.2606 135.005 88.1994 135.028 88.1518 135.07C88.1041 135.112 88.0733 135.169 88.065 135.232Z" fill="white"/>
<path d="M92.1417 134.7C92.0606 136.962 91.9976 139.219 91.9525 141.469C91.9525 141.597 92.0033 141.72 92.0937 141.81C92.1841 141.901 92.3067 141.952 92.4345 141.952C92.5624 141.952 92.685 141.901 92.7754 141.81C92.8658 141.72 92.9165 141.597 92.9165 141.469C92.876 139.213 92.8084 136.956 92.7318 134.7C92.7229 134.628 92.688 134.561 92.6337 134.513C92.5793 134.465 92.5093 134.439 92.4368 134.439C92.3643 134.439 92.2942 134.465 92.2399 134.513C92.1855 134.561 92.1506 134.628 92.1417 134.7Z" fill="white"/>
<path d="M95.4121 135.896C95.3625 137.89 95.304 139.88 95.2859 141.875C95.2859 141.999 95.3351 142.117 95.4225 142.205C95.5099 142.293 95.6285 142.342 95.7522 142.342C95.8758 142.342 95.9944 142.293 96.0819 142.205C96.1693 142.117 96.2184 141.999 96.2184 141.875C96.2184 139.88 96.1418 137.89 96.0878 135.896C96.0878 135.806 96.0522 135.72 95.9888 135.656C95.9255 135.593 95.8395 135.557 95.7499 135.557C95.6603 135.557 95.5744 135.593 95.511 135.656C95.4477 135.72 95.4121 135.806 95.4121 135.896Z" fill="white"/>
<path d="M99.0654 135.363C99.0069 139.614 98.8627 143.874 98.9978 148.125C98.9978 148.249 99.0472 148.369 99.1351 148.457C99.2229 148.545 99.3421 148.594 99.4663 148.594C99.5906 148.594 99.7098 148.545 99.7976 148.457C99.8855 148.369 99.9348 148.249 99.9348 148.125C100.07 143.874 99.9348 139.614 99.8673 135.363C99.8673 135.257 99.825 135.155 99.7498 135.079C99.6746 135.004 99.5727 134.962 99.4663 134.962C99.36 134.962 99.258 135.004 99.1828 135.079C99.1077 135.155 99.0654 135.257 99.0654 135.363Z" fill="white"/>
<path d="M106.079 135.765C106.016 136.514 105.962 137.267 105.953 138.02C105.964 138.122 106.012 138.217 106.088 138.285C106.164 138.354 106.263 138.392 106.365 138.392C106.467 138.392 106.566 138.354 106.642 138.285C106.718 138.217 106.766 138.122 106.777 138.02C106.777 137.267 106.714 136.514 106.651 135.765C106.642 135.695 106.608 135.631 106.556 135.584C106.503 135.538 106.435 135.512 106.365 135.512C106.295 135.512 106.227 135.538 106.174 135.584C106.122 135.631 106.088 135.695 106.079 135.765Z" fill="white"/>
<path d="M110.21 135.363C110.043 138.414 110.052 141.478 110.003 144.533C110.014 144.651 110.069 144.761 110.157 144.841C110.245 144.92 110.359 144.965 110.478 144.965C110.597 144.965 110.711 144.92 110.799 144.841C110.887 144.761 110.942 144.651 110.953 144.533C110.904 141.478 110.913 138.414 110.746 135.363C110.738 135.298 110.706 135.238 110.656 135.195C110.607 135.151 110.544 135.127 110.478 135.127C110.412 135.127 110.349 135.151 110.3 135.195C110.25 135.238 110.218 135.298 110.21 135.363Z" fill="white"/>
<path d="M102.011 135.499C101.989 137.046 101.971 138.599 101.953 140.147C101.98 140.24 102.037 140.323 102.115 140.381C102.193 140.44 102.288 140.472 102.385 140.472C102.483 140.472 102.578 140.44 102.656 140.381C102.734 140.323 102.79 140.24 102.818 140.147C102.818 138.599 102.777 137.046 102.759 135.499C102.759 135.399 102.72 135.304 102.65 135.234C102.58 135.163 102.484 135.124 102.385 135.124C102.286 135.124 102.191 135.163 102.121 135.234C102.051 135.304 102.011 135.399 102.011 135.499Z" fill="white"/>
<path d="M129.139 120.214C129.16 115.205 129.179 110.199 129.197 105.196C129.187 105.094 129.139 105 129.062 104.931C128.986 104.862 128.888 104.824 128.785 104.824C128.683 104.824 128.584 104.862 128.508 104.931C128.432 105 128.384 105.094 128.373 105.196C128.373 110.199 128.392 115.205 128.431 120.214C128.441 120.301 128.483 120.382 128.548 120.44C128.613 120.498 128.698 120.531 128.785 120.531C128.873 120.531 128.957 120.498 129.022 120.44C129.087 120.382 129.129 120.301 129.139 120.214Z" fill="white"/>
<path d="M132.621 117.822C132.657 113.878 132.756 109.934 132.702 105.99C132.702 105.902 132.667 105.817 132.604 105.754C132.542 105.692 132.457 105.656 132.369 105.656C132.28 105.656 132.195 105.692 132.133 105.754C132.07 105.817 132.035 105.902 132.035 105.99C131.981 109.934 132.085 113.878 132.116 117.822C132.116 117.889 132.143 117.954 132.19 118.001C132.237 118.049 132.302 118.075 132.369 118.075C132.435 118.075 132.5 118.049 132.547 118.001C132.594 117.954 132.621 117.889 132.621 117.822Z" fill="white"/>
<path d="M33.3961 74.8847C34.7881 75.6699 36.4142 75.918 37.8062 76.7845C39.7792 78.0164 40.509 79.9433 40.9595 82.1094C41.1892 83.1518 42.6622 82.6825 42.5181 81.6807C42.3612 80.6523 42.0015 79.6654 41.4602 78.7775C40.9188 77.8897 40.2065 77.1186 39.3648 76.5092C37.8873 75.3901 35.3601 74.3928 33.5087 74.5868C33.4746 74.5886 33.4419 74.601 33.4153 74.6225C33.3887 74.644 33.3695 74.6733 33.3605 74.7063C33.3515 74.7393 33.3532 74.7744 33.3652 74.8064C33.3773 74.8384 33.3991 74.8658 33.4276 74.8847H33.3961Z" fill="white"/>
<path d="M41.1352 89.4199C41.3514 91.067 41.0406 92.678 41.1352 94.3116C41.1328 94.472 41.1941 94.6267 41.3056 94.7418C41.4171 94.8569 41.5697 94.9229 41.7298 94.9253C41.8899 94.9277 42.0443 94.8663 42.1592 94.7546C42.2741 94.6429 42.34 94.49 42.3424 94.3297C42.437 92.7502 41.9595 90.8956 41.5856 89.3658C41.5271 89.1221 41.1081 89.1717 41.1352 89.4289V89.4199Z" fill="white"/>
<path d="M38.2386 104.397C32.4771 113.423 26.9003 123.075 25.3687 133.86C23.8732 144.42 28.2788 154.397 36.5088 161.031C41.4414 164.998 47.221 166.081 52.8743 163.021C58.5277 159.962 62.7261 154.569 67.2128 150.119C71.4427 145.927 76.7852 141.266 83.1909 142.209C84.3216 142.376 84.8081 140.638 83.6684 140.471C70.4877 138.576 62.9198 154.289 53.5365 160.666C51.1175 162.308 48.3832 163.373 45.4281 163.251C41.6487 163.08 38.3152 160.638 35.6484 158.17C31.1479 154.093 28.0853 148.666 26.9183 142.701C25.8732 137.137 26.9183 131.342 28.6166 126.004C30.9771 118.508 34.9232 111.505 38.4819 104.524C38.501 104.491 38.5065 104.453 38.4972 104.416C38.4879 104.38 38.4646 104.349 38.4323 104.33C38.4001 104.31 38.3615 104.305 38.3252 104.314C38.2889 104.324 38.2577 104.347 38.2386 104.379V104.397Z" fill="white"/>
<path d="M46.7975 103.495C41.018 112.475 35.4142 122.191 33.9186 132.958C32.4006 143.879 37.0719 153.531 45.3695 160.485C49.9553 164.339 55.5637 166.383 60.9468 162.926C65.7713 159.831 68.9065 154.65 73.2536 150.977C76.4068 148.337 80.1863 146.866 84.3036 147.48C85.4342 147.647 85.9207 145.909 84.7811 145.742C78.5466 144.84 73.6455 147.877 69.4156 152.182C65.7127 155.959 62.2081 161.604 56.8024 162.962C53.6492 163.752 50.5364 162.195 48.0093 160.453C43.079 157.044 39.2247 152.294 36.9007 146.762C32.4726 135.896 36.9773 124.059 41.7748 114.167C43.4911 110.634 45.302 107.137 47.0588 103.63C47.0683 103.614 47.0745 103.596 47.0771 103.578C47.0798 103.56 47.0787 103.541 47.0741 103.523C47.0695 103.505 47.0614 103.488 47.0503 103.473C47.0392 103.458 47.0252 103.446 47.0093 103.436C46.9933 103.427 46.9756 103.42 46.9572 103.418C46.9388 103.415 46.9201 103.416 46.9021 103.421C46.8842 103.425 46.8672 103.434 46.8524 103.445C46.8375 103.456 46.825 103.47 46.8156 103.486L46.7975 103.495Z" fill="white"/>
<path d="M334.998 155.968C320.74 155.403 306.602 153.112 292.893 149.145C273.744 143.653 254.581 134.555 241.058 119.524L240.945 119.393C249.905 108.793 256.365 95.7014 254.13 81.5949C252.779 73.0615 247.864 63.251 240.125 58.9188C236.994 57.1634 233.008 56.5813 229.665 58.093C225.611 59.9252 223.115 63.8918 221.8 68.0209C218.678 77.7637 222.165 89.1355 225.904 98.1789C229.086 106.001 233.467 113.277 238.891 119.745C231.629 128.039 222.494 134.975 213.665 140.539C206.349 145.165 198.52 149.149 190.294 151.879C178.533 155.778 165.388 156.514 153.108 155.846C139.823 155.178 126.756 152.189 114.498 147.015C114.219 146.897 113.976 147.299 114.26 147.425C136.463 157.322 162.383 159.763 186.042 154.348C194.506 152.398 202.502 148.63 210.038 144.366C218.34 139.677 226.074 134.046 233.089 127.583C235.425 125.429 237.651 123.156 239.756 120.774C240.139 121.225 240.522 121.636 240.913 122.055C254.319 136.523 273.167 145.273 291.785 150.792C305.831 154.966 320.344 157.361 334.985 157.922L334.998 155.968ZM225.904 93.3278C222.494 83.8512 219.512 70.3855 227.053 62.0326C230.318 58.4225 235.161 58.2555 239.274 60.3809C243.878 62.7546 246.873 67.4252 249.184 71.8972C253.418 80.1373 253.932 89.4965 251.297 98.3007C249.089 105.674 245.08 112.367 240.062 118.373C233.792 111.081 229.138 102.331 225.904 93.3278Z" fill="white"/>
<path d="M334.486 146.751C323.406 146.755 312.341 145.909 301.39 144.22C282.596 141.224 263.01 134.892 249.559 120.754C248.852 120.014 248.167 119.242 247.5 118.457C252.456 110.88 256.176 102.577 257.834 93.764C259.475 85.3142 258.533 76.5651 255.131 68.6601C252.037 61.5301 245.78 52.5184 236.806 55.5148C228.193 58.3893 225.18 69.1069 226.036 77.1755C227.09 87.1033 231.729 96.6385 236.572 105.208C239.176 109.942 242.162 114.455 245.5 118.701C240.587 125.782 234.87 132.268 228.464 138.029C221.818 144.171 214.378 149.392 206.346 153.552C197.719 157.943 188.219 159.644 178.655 160.542C167.931 161.474 157.139 161.276 146.456 159.951C135.82 158.706 125.149 156.3 115.279 152.076C115.004 151.959 114.761 152.361 115.04 152.487C135.181 161.476 158.893 163.651 180.664 161.558C189.651 160.691 198.449 158.909 206.602 154.937C214.454 151.12 221.657 145.944 228.225 140.217C235.151 134.247 241.296 127.424 246.514 119.91C248.384 122.137 250.42 124.219 252.604 126.138C259.483 132.135 267.668 136.431 276.164 139.644C289.534 144.703 303.89 146.937 318.089 147.988C323.544 148.394 329.013 148.593 334.486 148.629V146.751ZM234.351 97.2387C230.157 88.6647 225.608 77.6674 228.306 68.0058C229.63 63.272 233.261 58.2765 238.14 56.8911C243.018 55.5057 247.437 59.1474 250.037 62.9426C255.366 70.7179 257.582 80.0004 256.794 89.3506C255.956 99.3145 252.005 108.732 246.478 117.23C241.604 111.187 237.707 104.098 234.351 97.2387Z" fill="white"/>
<path d="M47.0453 98.8423C47.0903 95.1239 47.0948 91.3783 46.3921 87.7141C46.2435 86.9605 45.0407 87.2628 45.2299 88.0345C46.1939 91.6085 46.3516 95.16 46.4011 98.8648C46.4105 98.9438 46.4484 99.0167 46.5078 99.0695C46.5671 99.1223 46.6438 99.1515 46.7232 99.1515C46.8026 99.1515 46.8793 99.1223 46.9386 99.0695C46.998 99.0167 47.036 98.9438 47.0453 98.8648V98.8423Z" fill="white"/>
<path d="M33.7835 113.026C35.6848 114.56 37.4622 116.242 39.099 118.057C39.4594 118.472 40.1081 117.94 39.8423 117.48C39.3198 116.577 38.0675 115.814 37.2791 115.16C36.2341 114.289 35.1664 113.454 34.0898 112.628C33.8601 112.452 33.5628 112.841 33.7835 113.026Z" fill="white"/>
<path d="M32.833 113.878C34.2565 115.986 35.8692 118.296 37.8828 119.871C38.3333 120.228 38.9774 119.636 38.5315 119.221C36.6147 117.513 34.8455 115.646 33.243 113.639C33.0628 113.405 32.6574 113.639 32.833 113.878Z" fill="white"/>
<path d="M27.7382 126.685C29.7698 128.518 32.1843 129.822 34.3646 131.455C34.7565 131.749 35.1754 131.063 34.7565 130.787C32.5042 129.312 30.1302 128.08 27.9995 126.419C27.8148 126.27 27.549 126.518 27.7337 126.685H27.7382Z" fill="white"/>
<path d="M27.1616 129.163C29.2878 130.381 31.5627 131.293 33.7835 132.322C33.8244 132.346 33.8701 132.362 33.9176 132.367C33.965 132.373 34.013 132.368 34.0584 132.353C34.1037 132.338 34.1454 132.313 34.1805 132.281C34.2157 132.249 34.2434 132.209 34.262 132.165C34.2806 132.121 34.2895 132.074 34.2881 132.026C34.2868 131.978 34.2752 131.931 34.2542 131.888C34.2331 131.845 34.2032 131.807 34.1663 131.777C34.1294 131.747 34.0864 131.725 34.0403 131.713C31.7547 130.892 29.5247 129.925 27.3643 128.815C27.319 128.797 27.2684 128.795 27.2219 128.81C27.1754 128.826 27.1362 128.858 27.1114 128.9C27.0867 128.943 27.0781 128.993 27.0874 129.041C27.0966 129.089 27.123 129.133 27.1616 129.163Z" fill="white"/>
<path d="M25.6751 141.347C28.6031 141.965 31.6258 141.324 34.5403 140.936C34.9908 140.878 35.0268 140.133 34.5403 140.187C31.6123 140.526 28.7473 141.464 25.7742 140.999C25.549 140.963 25.4454 141.297 25.6751 141.347Z" fill="white"/>
<path d="M26.9589 144.352C29.6122 144.352 32.1618 143.585 34.6529 142.732C35.0808 142.588 34.9007 141.902 34.4682 142.051C31.9546 142.89 29.6527 143.951 26.9589 144.086C26.9278 144.092 26.8998 144.108 26.8796 144.133C26.8594 144.157 26.8483 144.188 26.8483 144.219C26.8483 144.251 26.8594 144.282 26.8796 144.306C26.8998 144.33 26.9278 144.347 26.9589 144.352Z" fill="white"/>
<path d="M30.5672 153.202C33.0312 153.847 35.3421 151.929 36.9593 150.277C37.02 150.203 37.0509 150.109 37.046 150.013C37.0412 149.916 37.0009 149.826 36.933 149.758C36.8652 149.69 36.7745 149.649 36.6787 149.645C36.5829 149.64 36.4886 149.671 36.4142 149.731C34.8466 151.248 33.0853 153.342 30.6482 152.89C30.45 152.85 30.3645 153.143 30.5672 153.193V153.202Z" fill="white"/>
<path d="M33.1619 155.395C34.9637 154.492 36.2611 153.003 37.5764 151.505C37.6081 151.463 37.6312 151.415 37.6443 151.364C37.6575 151.313 37.6605 151.26 37.6532 151.208C37.6459 151.155 37.6284 151.105 37.6017 151.06C37.575 151.014 37.5396 150.975 37.4976 150.943C37.4556 150.911 37.4078 150.888 37.3569 150.875C37.306 150.862 37.253 150.859 37.2009 150.866C37.1488 150.874 37.0987 150.891 37.0534 150.918C37.008 150.945 36.9684 150.98 36.9368 151.022C35.8106 152.57 34.5989 154.032 32.8826 154.971C32.6033 155.124 32.8465 155.53 33.1258 155.395H33.1619Z" fill="white"/>
<path d="M58.4151 158.089C59.6449 159.086 60.7395 160.228 61.9558 161.248C61.994 161.289 62.0408 161.321 62.0928 161.342C62.1448 161.363 62.2009 161.373 62.2569 161.37C62.313 161.367 62.3677 161.352 62.4172 161.325C62.4667 161.298 62.5098 161.261 62.5434 161.216C62.5769 161.171 62.6002 161.119 62.6115 161.064C62.6228 161.009 62.6219 160.952 62.6089 160.897C62.5958 160.843 62.5708 160.792 62.5358 160.748C62.5008 160.704 62.4566 160.668 62.4063 160.643C61.1134 159.741 59.9602 158.648 58.6764 157.728C58.4647 157.574 58.1944 157.926 58.3971 158.093L58.4151 158.089Z" fill="white"/>
<path d="M60.2035 157.128C60.9693 158.26 61.9828 159.497 63.2622 160.061C63.6766 160.246 64.0325 159.686 63.627 159.443C63.0662 159.143 62.5313 158.798 62.0279 158.409C61.5006 157.937 61.0125 157.422 60.5684 156.871C60.3972 156.667 60.0548 156.934 60.2035 157.15V157.128Z" fill="white"/>
<path d="M66.2938 150.196C67.1948 151.135 68.0957 152.064 68.9426 153.021C69.2849 153.396 69.8706 152.809 69.4967 152.471C68.5417 151.6 67.6137 150.702 66.6767 149.813C66.626 149.762 66.5571 149.733 66.4853 149.733C66.4135 149.733 66.3446 149.762 66.2938 149.813C66.2431 149.863 66.2145 149.932 66.2145 150.004C66.2145 150.076 66.2431 150.145 66.2938 150.196Z" fill="white"/>
<path d="M68.0416 148.639C68.627 149.541 69.5275 150.204 70.0768 151.129C70.3785 151.639 71.1169 151.102 70.7297 150.624C70.0723 149.803 69.2033 149.171 68.5774 148.323C68.3433 148.008 67.8165 148.296 68.0416 148.639Z" fill="white"/>
<path d="M76.578 141.852C77.1849 143.647 78.0911 145.325 79.2583 146.816C79.2879 146.853 79.3243 146.883 79.3656 146.905C79.4068 146.928 79.4521 146.942 79.4987 146.946C79.5454 146.951 79.5925 146.947 79.6374 146.933C79.6823 146.92 79.7242 146.898 79.7606 146.868C79.797 146.839 79.8272 146.802 79.8494 146.761C79.8717 146.719 79.8857 146.674 79.8905 146.627C79.8953 146.581 79.8909 146.533 79.8775 146.488C79.8641 146.443 79.842 146.401 79.8124 146.365C78.6449 144.979 77.719 143.406 77.0735 141.712C76.9564 141.401 76.4699 141.527 76.5735 141.852H76.578Z" fill="white"/>
<path d="M79.3034 142.164C79.5921 143.967 80.4418 145.633 81.7314 146.925C82.0557 147.272 82.5918 146.74 82.2539 146.401C81.0364 145.208 80.1887 143.688 79.8124 142.024C79.7313 141.685 79.2583 141.839 79.3034 142.164Z" fill="white"/>
<path d="M127.625 157.367C128.026 157.11 128.035 156.139 128.121 155.729C128.35 154.664 128.571 153.59 128.868 152.543C129.004 152.092 128.242 151.87 128.148 152.344C127.931 153.418 127.792 154.51 127.639 155.593C127.58 156.045 127.256 156.974 127.558 157.358C127.568 157.364 127.579 157.368 127.591 157.368C127.603 157.368 127.615 157.364 127.625 157.358V157.367Z" fill="white"/>
<path d="M129.873 157.62C129.923 155.896 130.013 154.167 130.022 152.444C130.013 152.372 129.978 152.305 129.923 152.257C129.869 152.209 129.799 152.182 129.727 152.182C129.654 152.182 129.584 152.209 129.53 152.257C129.475 152.305 129.44 152.372 129.432 152.444C129.432 154.167 129.526 155.896 129.576 157.62C129.576 157.659 129.591 157.697 129.619 157.725C129.647 157.753 129.685 157.769 129.724 157.769C129.764 157.769 129.802 157.753 129.829 157.725C129.857 157.697 129.873 157.659 129.873 157.62Z" fill="white"/>
<path d="M141.153 159.763C141.328 158.188 141.486 156.807 142.198 155.377C142.237 155.295 142.244 155.201 142.217 155.114C142.191 155.027 142.132 154.954 142.054 154.908C141.975 154.863 141.882 154.848 141.794 154.868C141.705 154.888 141.628 154.941 141.576 155.016C141.18 155.557 141.076 156.401 140.959 157.046C140.787 157.938 140.732 158.848 140.797 159.754C140.804 159.796 140.825 159.835 140.858 159.863C140.89 159.891 140.932 159.906 140.975 159.906C141.018 159.906 141.059 159.891 141.092 159.863C141.124 159.835 141.146 159.796 141.153 159.754V159.763Z" fill="white"/>
<path d="M142.234 160.666C142.556 158.72 143.055 156.807 143.725 154.952C143.878 154.564 143.193 154.361 143.09 154.776C142.67 156.714 142.356 158.672 142.148 160.643C142.148 160.693 142.22 160.702 142.234 160.643V160.666Z" fill="white"/>
<path d="M155.779 161.789C156.036 160.3 156.077 158.761 156.23 157.277C156.27 156.803 155.536 156.726 155.419 157.164C155.036 158.59 155.239 160.133 155.009 161.591C154.933 162.101 155.707 162.326 155.793 161.807L155.779 161.789Z" fill="white"/>
<path d="M157.59 161.893C157.837 160.267 157.956 158.624 157.946 156.979C157.936 156.893 157.895 156.814 157.831 156.756C157.767 156.698 157.683 156.667 157.597 156.667C157.511 156.667 157.427 156.698 157.363 156.756C157.299 156.814 157.258 156.893 157.248 156.979C157.306 158.57 157.24 160.163 157.05 161.744C157 162.096 157.532 162.254 157.59 161.893Z" fill="white"/>
<path d="M172.019 162.29C172.492 160.539 172.104 158.481 171.969 156.703C171.942 156.324 171.343 156.324 171.379 156.703C171.606 158.538 171.679 160.389 171.595 162.236C171.595 162.484 171.96 162.525 172.019 162.29Z" fill="white"/>
<path d="M173.812 161.821C173.784 160.096 173.875 158.371 174.082 156.658C174.15 156.207 173.478 156.031 173.406 156.473C173.127 158.233 173.339 160.047 173.406 161.821C173.414 161.87 173.438 161.915 173.476 161.947C173.514 161.98 173.562 161.998 173.611 161.998C173.661 161.998 173.709 161.98 173.747 161.947C173.784 161.915 173.809 161.87 173.816 161.821H173.812Z" fill="white"/>
<path d="M187.114 160.575C187.113 158.445 186.852 156.324 186.335 154.258C186.305 154.185 186.25 154.126 186.18 154.091C186.11 154.057 186.03 154.049 185.955 154.07C185.879 154.09 185.814 154.138 185.771 154.203C185.728 154.268 185.711 154.347 185.722 154.425C186.264 156.426 186.558 158.488 186.596 160.562C186.604 160.625 186.635 160.682 186.683 160.724C186.73 160.766 186.792 160.789 186.855 160.789C186.918 160.789 186.98 160.766 187.027 160.724C187.075 160.682 187.106 160.625 187.114 160.562V160.575Z" fill="white"/>
<path d="M188.655 160.435C188.889 157.967 188.488 155.435 188.029 153.012C187.943 152.561 187.227 152.75 187.339 153.206C187.92 155.602 188.101 157.994 188.371 160.426C188.377 160.46 188.394 160.49 188.42 160.512C188.446 160.533 188.479 160.545 188.513 160.545C188.547 160.545 188.579 160.533 188.605 160.512C188.631 160.49 188.649 160.46 188.655 160.426V160.435Z" fill="white"/>
<path d="M203.367 156.351C203.867 153.382 202.416 150.386 201.115 147.814C200.903 147.398 200.272 147.764 200.493 148.175C201.844 150.697 203.088 153.364 202.916 156.297C202.916 156.559 203.331 156.618 203.367 156.361V156.351Z" fill="white"/>
<path d="M204.633 155.354C205.002 152.647 204.043 149.98 203.092 147.48C203.077 147.429 203.051 147.382 203.016 147.342C202.981 147.302 202.938 147.27 202.89 147.248C202.842 147.225 202.79 147.213 202.738 147.212C202.685 147.211 202.632 147.222 202.583 147.242C202.535 147.263 202.491 147.293 202.455 147.332C202.418 147.371 202.391 147.416 202.373 147.466C202.356 147.516 202.349 147.57 202.353 147.622C202.358 147.675 202.373 147.726 202.398 147.773C203.678 150.151 204.2 152.656 204.403 155.323C204.403 155.444 204.615 155.49 204.633 155.354Z" fill="white"/>
<path d="M219.007 147.854C219.084 144.966 218.007 142.25 216.822 139.664C216.638 139.258 216.061 139.61 216.232 140.011C217.327 142.561 218.485 145.02 218.485 147.854C218.485 147.926 218.513 147.995 218.564 148.046C218.615 148.096 218.683 148.125 218.755 148.125C218.827 148.125 218.895 148.096 218.946 148.046C218.997 147.995 219.025 147.926 219.025 147.854H219.007Z" fill="white"/>
<path d="M220.476 145.981C220.899 143.328 219.21 140.593 218.255 138.22C218.084 137.8 217.399 137.971 217.561 138.409C218.462 140.774 220.327 143.287 220.021 145.918C219.989 146.18 220.435 146.239 220.471 145.981H220.476Z" fill="white"/>
<path d="M229.539 139.456C228.863 136.924 228.485 134.14 227.017 131.915C226.97 131.852 226.901 131.808 226.824 131.792C226.747 131.776 226.667 131.789 226.598 131.829C226.53 131.869 226.479 131.932 226.455 132.007C226.431 132.082 226.435 132.164 226.467 132.236C227.692 134.596 228.219 137.082 228.909 139.628C228.938 139.703 228.995 139.764 229.067 139.801C229.139 139.837 229.222 139.845 229.3 139.824C229.378 139.803 229.446 139.753 229.49 139.686C229.534 139.618 229.551 139.536 229.539 139.456Z" fill="white"/>
<path d="M230.71 136.658C230.683 134.546 229.877 132.295 228.881 130.449C228.755 130.21 228.341 130.377 228.431 130.638C229.206 132.674 230.12 134.515 230.494 136.685C230.517 136.803 230.701 136.771 230.701 136.658H230.71Z" fill="white"/>
<path d="M238.085 129.474C238.31 128.748 237.814 127.773 237.576 127.101C237.188 125.977 236.738 124.867 236.256 123.779C236.116 123.459 235.557 123.694 235.688 124.018C236.048 124.921 236.476 125.801 236.882 126.681C237.287 127.561 237.503 128.685 238.035 129.479C238.037 129.484 238.041 129.488 238.045 129.491C238.049 129.494 238.054 129.495 238.06 129.495C238.065 129.495 238.07 129.494 238.075 129.491C238.079 129.488 238.082 129.484 238.085 129.479V129.474Z" fill="white"/>
<path d="M239.413 127.326C238.963 125.787 238.413 124.235 237.828 122.741C237.67 122.353 237.048 122.507 237.184 122.917C237.702 124.47 238.301 126.022 238.94 127.525C239.053 127.795 239.495 127.601 239.413 127.326Z" fill="white"/>
<path d="M251.225 112.899C250.446 111.337 249.417 109.914 248.18 108.684C248.13 108.644 248.067 108.624 248.002 108.627C247.938 108.63 247.878 108.657 247.832 108.702C247.786 108.747 247.759 108.808 247.755 108.872C247.751 108.936 247.77 108.999 247.81 109.05C248.954 110.297 249.967 111.658 250.833 113.111C250.863 113.163 250.913 113.201 250.971 113.216C251.03 113.232 251.092 113.223 251.144 113.193C251.196 113.162 251.233 113.112 251.249 113.054C251.264 112.995 251.255 112.933 251.225 112.881V112.899Z" fill="white"/>
<path d="M251.81 110.607C251.36 109.253 250.459 108.084 249.63 106.929C249.423 106.645 248.941 106.929 249.18 107.209C250.026 108.305 250.923 109.411 251.432 110.724C251.531 110.981 251.941 110.873 251.851 110.607H251.81Z" fill="white"/>
<path d="M257.693 93.1022C256.132 92.7324 254.637 92.1236 253.261 91.2971C253.189 91.2651 253.108 91.2608 253.033 91.2851C252.958 91.3094 252.894 91.3606 252.855 91.4288C252.815 91.497 252.802 91.5775 252.818 91.6548C252.834 91.7321 252.878 91.8008 252.941 91.8477C254.407 92.6503 256.01 93.1736 257.666 93.391C257.833 93.4135 257.86 93.1428 257.702 93.1022H257.693Z" fill="white"/>
<path d="M257.351 90.8414C256.346 90.29 255.267 89.8844 254.148 89.6366C253.77 89.5373 253.612 90.1284 253.986 90.2187C255.073 90.4277 256.132 90.7655 257.139 91.225C257.164 91.2395 257.192 91.2489 257.221 91.2527C257.25 91.2565 257.279 91.2545 257.307 91.247C257.335 91.2395 257.361 91.2265 257.384 91.2087C257.407 91.191 257.427 91.169 257.441 91.1438C257.456 91.1186 257.465 91.0908 257.469 91.062C257.473 91.0331 257.471 91.0039 257.463 90.9758C257.456 90.9477 257.443 90.9214 257.425 90.8983C257.407 90.8753 257.385 90.8559 257.36 90.8414H257.351Z" fill="white"/>
<path d="M253.716 79.65C255.216 79.1988 256.27 77.9533 257.211 76.7619C257.245 76.7267 257.271 76.6849 257.287 76.6392C257.303 76.5935 257.31 76.5448 257.306 76.4964C257.302 76.4479 257.289 76.4008 257.266 76.358C257.243 76.3152 257.211 76.2777 257.173 76.2479C257.135 76.2181 257.091 76.1967 257.044 76.185C256.996 76.1733 256.948 76.1717 256.9 76.1801C256.852 76.1886 256.807 76.207 256.766 76.2341C256.726 76.2613 256.692 76.2966 256.666 76.3377C255.86 77.4704 254.941 78.7024 253.59 79.1897C253.306 79.2935 253.418 79.7403 253.716 79.641V79.65Z" fill="white"/>
<path d="M252.779 76.7303C254.486 76.0489 255.414 74.0859 255.68 72.3531C255.756 71.8747 255.054 71.6536 254.937 72.15C254.585 73.6572 254.067 75.4397 252.513 76.1031C252.157 76.2565 252.419 76.8747 252.779 76.7303Z" fill="white"/>
<path d="M248.342 67.2538C249.693 65.3946 249.936 63.0029 249.846 60.7736C249.846 60.3224 249.153 60.3449 249.18 60.7736C249.324 62.9126 249.153 65.187 247.923 67.0101C247.747 67.2718 248.161 67.5065 248.342 67.2538Z" fill="white"/>
<path d="M246.189 64.6274C246.471 62.4761 246.331 60.2904 245.779 58.1924C245.754 58.1271 245.706 58.0733 245.644 58.0418C245.582 58.0102 245.51 58.003 245.443 58.0216C245.376 58.0403 245.318 58.0834 245.281 58.1426C245.244 58.2017 245.23 58.2726 245.243 58.3413C245.735 60.3981 245.876 62.5234 245.661 64.6274C245.625 64.9659 246.148 64.9614 246.189 64.6274Z" fill="white"/>
<path d="M224.607 64.7131C225.287 64.8621 225.958 64.9884 226.647 65.1283C227.336 65.2682 227.94 65.4984 228.598 65.5796C228.891 65.6202 229.129 65.2186 228.818 65.0561C227.625 64.4469 226.035 64.4649 224.733 64.2483C224.44 64.1987 224.314 64.6319 224.607 64.6996V64.7131Z" fill="white"/>
<path d="M223.841 67.1544C225.363 67.0552 226.877 67.2176 228.395 67.1905C228.482 67.1807 228.562 67.1391 228.62 67.0738C228.679 67.0085 228.711 66.9239 228.711 66.8363C228.711 66.7487 228.679 66.6641 228.62 66.5988C228.562 66.5334 228.482 66.4919 228.395 66.482C226.877 66.4061 225.357 66.4181 223.841 66.5181C223.44 66.5542 223.431 67.1815 223.841 67.1544Z" fill="white"/>
<path d="M222.462 79.5733C224.165 79.6871 225.876 79.5132 227.521 79.0588C227.565 79.047 227.605 79.0267 227.641 78.999C227.677 78.9714 227.706 78.937 227.729 78.8979C227.751 78.8587 227.766 78.8155 227.771 78.7707C227.777 78.7259 227.774 78.6805 227.762 78.6369C227.75 78.5934 227.73 78.5526 227.702 78.5168C227.675 78.4811 227.641 78.4512 227.601 78.4288C227.562 78.4064 227.519 78.3919 227.474 78.3862C227.43 78.3805 227.384 78.3836 227.341 78.3955C225.749 78.8122 224.108 79.0111 222.462 78.9866C222.084 78.9866 222.093 79.5372 222.462 79.5688V79.5733Z" fill="white"/>
<path d="M222.651 82.2222C224.295 82.4504 225.969 82.2691 227.526 81.6942C227.976 81.5408 227.773 80.8278 227.332 80.9902C225.901 81.5524 224.354 81.7539 222.827 81.5769C222.413 81.5227 222.233 82.1455 222.651 82.2086V82.2222Z" fill="white"/>
<path d="M225.832 94.8351C227.949 94.4289 229.314 92.7818 230.719 91.2881C231.039 90.9451 230.512 90.4307 230.215 90.7782C228.922 92.2764 227.715 93.8784 225.71 94.4199C225.44 94.4921 225.557 94.8712 225.827 94.8351H225.832Z" fill="white"/>
<path d="M226.8 96.7891C228.719 96.1483 229.859 94.4109 231.224 93.0345C231.49 92.7683 231.075 92.3531 230.814 92.6239C229.544 93.9461 228.481 95.697 226.679 96.3378C226.399 96.4371 226.517 96.8838 226.8 96.7891Z" fill="white"/>
<path d="M231.49 107.832C233.715 107.087 235.467 105.521 236.931 103.73C236.961 103.692 236.983 103.65 236.996 103.604C237.009 103.559 237.013 103.511 237.008 103.464C237.003 103.417 236.989 103.371 236.966 103.33C236.943 103.288 236.912 103.251 236.875 103.222C236.838 103.192 236.796 103.17 236.75 103.157C236.705 103.144 236.657 103.14 236.61 103.145C236.563 103.15 236.517 103.165 236.476 103.187C236.434 103.21 236.398 103.241 236.368 103.278C235.053 105.034 233.449 106.604 231.377 107.398C231.12 107.498 231.224 107.908 231.49 107.818V107.832Z" fill="white"/>
<path d="M233.211 110.178C234.881 108.937 236.34 107.433 237.53 105.724C237.787 105.359 237.175 104.993 236.927 105.372C235.841 107.057 234.488 108.554 232.922 109.804C232.71 109.971 232.994 110.341 233.211 110.178Z" fill="white"/>
<path d="M238.265 117.281C240.468 116.73 241.594 114.334 242.364 112.407C242.517 112.028 241.914 111.861 241.756 112.24C241.089 113.987 240.098 116.239 238.125 116.753C238.065 116.777 238.016 116.823 237.987 116.882C237.958 116.94 237.952 117.007 237.969 117.07C237.986 117.133 238.026 117.187 238.08 117.223C238.135 117.258 238.2 117.273 238.265 117.263V117.281Z" fill="white"/>
<path d="M248.283 127.818C249.635 126.419 250.18 124.488 250.644 122.638C250.747 122.24 250.121 122.073 250.035 122.471C249.657 124.249 249.234 126.13 247.981 127.52C247.801 127.723 248.089 128.017 248.283 127.818Z" fill="white"/>
<path d="M249.671 128.87C250.666 127.168 251.121 125.11 251.472 123.184C251.531 122.823 251.022 122.66 250.909 123.03C250.427 124.966 250.189 126.834 249.373 128.684C249.283 128.897 249.572 129.082 249.693 128.87H249.671Z" fill="white"/>
<path d="M259.689 135.476C260.139 134.176 260.338 132.804 260.716 131.487C260.829 131.085 260.266 130.959 260.117 131.32C259.594 132.583 259.594 134.027 259.216 135.345C259.202 135.407 259.212 135.473 259.245 135.528C259.278 135.583 259.331 135.623 259.392 135.639C259.454 135.656 259.519 135.649 259.576 135.618C259.632 135.588 259.674 135.537 259.693 135.476H259.689Z" fill="white"/>
<path d="M261.482 136.446C261.77 135.169 261.932 133.869 262.221 132.588C262.297 132.213 261.716 132.055 261.649 132.43C261.414 133.721 261.266 135.025 261.004 136.315C260.941 136.627 261.41 136.767 261.482 136.446Z" fill="white"/>
<path d="M275.811 143.445C275.163 142.006 275.19 140.408 275.329 138.869C275.361 138.504 274.789 138.504 274.757 138.869C274.636 140.512 274.672 142.177 275.383 143.693C275.518 143.987 275.942 143.734 275.811 143.445Z" fill="white"/>
<path d="M277.001 143.969C276.892 142.449 276.916 140.922 277.073 139.407C277.1 139.113 276.622 139.109 276.622 139.407C276.521 140.926 276.539 142.452 276.676 143.969C276.676 144.176 277.019 144.181 277.001 143.969Z" fill="white"/>
<path d="M291.109 148.852C290.218 147.236 289.774 145.412 289.821 143.567C289.812 143.497 289.778 143.433 289.725 143.387C289.673 143.34 289.605 143.314 289.535 143.314C289.465 143.314 289.397 143.34 289.344 143.387C289.291 143.433 289.257 143.497 289.249 143.567C289.244 145.501 289.754 147.402 290.726 149.073C290.756 149.124 290.804 149.161 290.86 149.176C290.917 149.191 290.977 149.183 291.028 149.154C291.079 149.125 291.116 149.076 291.131 149.02C291.146 148.963 291.138 148.902 291.109 148.852Z" fill="white"/>
<path d="M293.015 149.691C292.264 147.937 291.966 146.022 292.145 144.122C292.168 143.784 291.632 143.779 291.618 144.122C291.482 146.104 291.848 148.087 292.681 149.889C292.789 150.12 293.132 149.916 293.015 149.691Z" fill="white"/>
<path d="M305.691 153.387C305.722 150.765 305.24 148.125 304.736 145.562C304.668 145.223 304.087 145.3 304.132 145.643C304.484 148.247 305.267 150.742 305.398 153.387C305.404 153.421 305.422 153.452 305.449 153.475C305.476 153.497 305.509 153.51 305.544 153.51C305.579 153.51 305.613 153.497 305.64 153.475C305.667 153.452 305.685 153.421 305.691 153.387Z" fill="white"/>
<path d="M307.15 153.247C307.064 151.116 306.762 148.999 306.249 146.929C306.146 146.55 305.619 146.717 305.677 147.087C305.997 149.145 306.511 151.148 306.704 153.229C306.704 153.518 307.155 153.522 307.155 153.229L307.15 153.247Z" fill="white"/>
<path d="M318.565 155.408C317.971 152.872 317.894 150.291 317.61 147.737C317.561 147.313 316.899 147.308 316.944 147.737C317.209 150.35 317.471 152.99 318.196 155.526C318.209 155.575 318.241 155.617 318.285 155.642C318.329 155.667 318.381 155.674 318.43 155.661C318.479 155.648 318.521 155.616 318.546 155.572C318.571 155.528 318.578 155.475 318.565 155.426V155.408Z" fill="white"/>
<path d="M319.552 155.323C319.444 152.692 319.155 150.07 319.002 147.439C319.002 146.988 318.277 146.988 318.308 147.439C318.475 150.079 318.93 152.687 319.142 155.323C319.142 155.584 319.561 155.589 319.552 155.323Z" fill="white"/>
<path d="M331.489 156.703C331.692 153.581 330.903 150.521 330.534 147.439C330.489 147.082 329.93 147.069 329.962 147.439C330.246 150.544 331.129 153.563 330.939 156.703C330.939 157.06 331.466 157.055 331.489 156.703Z" fill="white"/>
<path d="M333.273 155.738C332.892 152.883 332.546 150.025 332.237 147.164C332.192 146.744 331.534 146.712 331.57 147.164C331.832 150.056 332.318 152.935 332.755 155.805C332.8 156.099 333.314 156.031 333.273 155.738Z" fill="white"/>
</svg>
