<svg width="22" height="18" viewBox="0 0 22 18" fill="none" xmlns="http://www.w3.org/2000/svg">
<path d="M22 2.09533C21.1916 2.45341 20.322 2.69233 19.4048 2.80538C20.3373 2.25176 21.0547 1.36878 21.3914 0.325695C20.5188 0.837153 19.5521 1.21295 18.5237 1.41094C17.7024 0.540177 16.531 0 15.2331 0C12.74 0 10.7192 2.00306 10.7192 4.47296C10.7192 4.82249 10.7601 5.16285 10.8371 5.49343C7.08645 5.30522 3.75984 3.52215 1.53436 0.816377C1.14328 1.47754 0.923297 2.25176 0.923297 3.06874C0.923297 4.62145 1.71829 5.98839 2.93063 6.79377C2.19064 6.77116 1.49403 6.56523 0.884189 6.23526C0.884189 6.2487 0.884189 6.26887 0.884189 6.28781C0.884189 8.45769 2.44056 10.2646 4.5035 10.6758C4.12647 10.7791 3.72806 10.8365 3.31743 10.8365C3.02595 10.8365 2.74181 10.8035 2.46683 10.7541C3.04123 12.5273 4.70759 13.8234 6.68193 13.8619C5.13717 15.0596 3.19155 15.777 1.07606 15.777C0.710648 15.777 0.353178 15.7562 -1.52588e-05 15.7134C1.99876 16.9789 4.37212 17.7207 6.91963 17.7207C15.2209 17.7207 19.7623 10.9038 19.7623 4.98992C19.7623 4.79621 19.7562 4.60312 19.747 4.41247C20.633 3.78674 21.3969 2.99725 22 2.09533Z" fill="white"/>
</svg>
